<svg width="20" height="19" viewBox="0 0 20 19" fill="none" xmlns="http://www.w3.org/2000/svg">
  <path
    d="M4.35059 3.40918C4.35059 5.45703 5.31738 6.81055 6.77637 6.81055C8.24414 6.81055 9.22852 5.44824 9.22852 3.40918C9.22852 1.37012 8.25293 0.0166016 6.77637 0.0166016C5.31738 0.0166016 4.35059 1.37012 4.35059 3.40918ZM10.1777 3.40918C10.1777 5.43945 11.1533 6.81055 12.6211 6.81055C14.0889 6.81055 15.0557 5.45703 15.0557 3.40918C15.0557 1.37012 14.0889 0.0166016 12.6211 0.0166016C11.1533 0.0166016 10.1777 1.37012 10.1777 3.40918ZM5.73926 3.40918C5.73926 2.19629 6.15234 1.39648 6.77637 1.39648C7.40918 1.39648 7.83984 2.20508 7.83984 3.40918C7.83984 4.62207 7.40918 5.43066 6.77637 5.43066C6.15234 5.43066 5.73926 4.62207 5.73926 3.40918ZM11.5664 3.40918C11.5664 2.21387 11.9971 1.40527 12.6211 1.40527C13.2363 1.40527 13.6582 2.20508 13.6582 3.40918C13.6582 4.62207 13.2363 5.41309 12.6211 5.41309C11.9971 5.41309 11.5664 4.61328 11.5664 3.40918ZM0 8.57715C0 10.6162 0.966797 11.9785 2.43457 11.9785C3.90234 11.9785 4.87793 10.6162 4.87793 8.57715C4.87793 6.53809 3.90234 5.17578 2.43457 5.17578C0.966797 5.17578 0 6.53809 0 8.57715ZM14.5195 8.57715C14.5195 10.6074 15.5039 11.9785 16.9629 11.9785C18.4307 11.9785 19.3975 10.6074 19.3975 8.57715C19.3975 6.53809 18.4307 5.17578 16.9629 5.17578C15.5039 5.17578 14.5195 6.53809 14.5195 8.57715ZM1.38867 8.57715C1.38867 7.35547 1.80176 6.55566 2.43457 6.55566C3.06738 6.55566 3.48926 7.36426 3.48926 8.57715C3.48926 9.79004 3.06738 10.5986 2.43457 10.5986C1.80176 10.5986 1.38867 9.79004 1.38867 8.57715ZM15.917 8.57715C15.917 7.37305 16.3477 6.56445 16.9629 6.56445C17.5869 6.56445 18.0088 7.36426 18.0088 8.57715C18.0088 9.79004 17.5869 10.5811 16.9629 10.5811C16.3477 10.5811 15.917 9.78125 15.917 8.57715ZM6.25781 18.9834C7.1543 18.9834 7.81348 18.7725 8.31445 18.5527C8.85059 18.333 9.22852 18.1133 9.68555 18.1133C10.1514 18.1133 10.5293 18.333 11.0566 18.5527C11.5664 18.7725 12.2168 18.9834 13.1133 18.9834C15.0732 18.9834 16.5498 17.5596 16.5498 15.6963C16.5498 13.8594 15.4863 12.998 14.5898 12.2861C14.124 11.9082 13.7373 11.6006 13.5 11.2227C13.2715 10.8535 13.0957 10.4404 12.876 9.93945C12.2871 8.58594 11.6455 7.24121 9.68555 7.24121C7.73438 7.24121 7.09277 8.58594 6.50391 9.93945C6.28418 10.4229 6.11719 10.8359 5.89746 11.1963C5.66016 11.583 5.26465 11.8994 4.78125 12.2861C3.89355 12.998 2.83008 13.8594 2.83008 15.6963C2.83008 17.5596 4.30664 18.9834 6.25781 18.9834ZM6.30176 17.498C5.15039 17.498 4.33301 16.751 4.33301 15.6963C4.33301 13.7451 5.99414 13.877 7.10156 12.0137C7.91895 10.6338 8.16504 8.71777 9.68555 8.71777C11.2148 8.71777 11.4609 10.6338 12.2871 12.0225C13.3857 13.877 15.0469 13.7451 15.0469 15.6963C15.0469 16.751 14.2295 17.498 13.0781 17.498C11.8389 17.498 11.0566 16.6367 9.68555 16.6367C8.32324 16.6367 7.54102 17.498 6.30176 17.498Z"
    fill="#1C1C1E" />
</svg>