<svg width="29" height="21" viewBox="0 0 29 21" fill="none" xmlns="http://www.w3.org/2000/svg">
  <path
    d="M8.60254 20.2871C6.51074 20.2871 5.12207 19.3818 5.12207 17.8262C5.12207 16.7012 5.99219 15.9541 7.25781 15.9541C7.93457 15.9541 8.4707 16.1299 9.14746 16.1387C9.41113 16.1387 9.65723 16.1035 9.90332 15.998L9.17383 15.3652C6.23828 15.6025 3.91797 14.416 3.05664 13.0098C1.84375 12.9658 0.745117 12.2188 0.745117 10.8389C0.745117 9.70508 1.49219 8.95801 2.63477 8.73828C3.74219 5.52148 6.08008 3.85156 9.29688 3.85156C12.0742 3.85156 14.2188 5.54785 17.6904 7.46387C18.165 7.75391 18.6045 7.9209 18.9033 7.9209C19.1055 7.9209 19.2549 7.8418 19.4482 7.6748C17.9365 6.76953 15.9854 5.60938 14.7373 4.81836C13.5859 4.08008 12.5488 3.38574 12.5488 2.38379C12.5488 1.04785 14.6582 0.177734 16.2402 0.177734C18.3232 0.177734 19.9053 1.27637 21.3379 3.23633L23.2275 5.84668C25.9961 5.91699 28.2461 8.17578 28.2461 11.1904C28.2461 13.6162 26.7871 14.4336 24.291 14.4512C23.1748 14.46 21.6982 14.0645 20.5732 13.3438C20.0283 13.5547 19.2637 13.8711 18.4463 14.2842C20.8809 14.4951 22.1641 15.4443 22.1641 17.2637C22.1641 18.3447 21.4258 19.3115 19.5977 19.3115C18.8154 19.3115 18.2881 19.0654 17.3301 19.0654C16.3193 19.0654 15.7041 19.2939 14.957 19.2939C14.166 19.2939 13.5947 19.1182 13.1025 18.749C11.8896 19.8564 10.2988 20.2871 8.60254 20.2871ZM17.2773 17.6416C18.0859 17.6416 18.7275 17.8525 19.5977 17.8525C20.2656 17.8525 20.6348 17.5361 20.6348 17.1143C20.6348 16.0068 19.0439 15.5059 17.3037 15.5059C16.1963 15.5059 15.5195 15.6201 14.8252 15.7607L13.9375 13.6777C12.7158 10.8389 11.3271 9.77539 9.36719 9.77539C8.94531 9.77539 8.66406 9.82812 8.30371 9.83691C7.89062 9.83691 7.60059 9.58203 7.60059 9.18652C7.60059 8.87012 7.78516 8.6416 8.25977 8.53613C8.64648 8.44824 9.05078 8.43945 9.41113 8.43945C11.6436 8.43945 13.7793 9.59961 15.0713 12.7725L15.6953 14.3369C15.8271 14.3193 15.9766 14.293 16.1611 14.2754C17.4443 13.2471 19.1582 12.4209 20.8018 11.999C21.9355 12.6934 23.21 13.1328 24.335 13.1328C26.1719 13.1328 26.8486 12.6846 26.8486 11.1992C26.8486 8.81738 25.0381 6.94531 22.542 7.0332L19.7646 3.7373C18.7275 2.49805 17.6201 1.71582 16.2578 1.71582C15.4229 1.71582 14.3242 2.06738 14.3242 2.56836C14.3242 2.79688 15.0713 3.37695 15.6602 3.7373L21.4521 7.42871C20.8809 8.73828 20.0723 9.39746 18.9912 9.39746C18.5254 9.39746 17.8223 9.26562 17.1631 8.90527C14.8691 7.65723 12.1182 5.4248 9.2793 5.4248C6.63379 5.4248 4.76172 6.76953 3.85645 9.6875C2.93359 9.64355 2.32715 10.0742 2.32715 10.7246C2.32715 11.4014 2.95996 11.7354 3.83008 11.6475C5.0166 13.335 7.01172 14.0557 9.85059 13.915L13.7969 17.4043C14.1924 17.7383 14.5879 17.791 14.9922 17.791C15.4404 17.791 16.2402 17.6416 17.2773 17.6416ZM23.7373 10.6543C23.2891 10.6543 22.9287 10.2852 22.9287 9.8457C22.9287 9.39746 23.2891 9.03711 23.7373 9.03711C24.1768 9.03711 24.5459 9.39746 24.5459 9.8457C24.5459 10.2852 24.1768 10.6543 23.7373 10.6543ZM6.59863 17.835C6.59863 18.5205 7.39844 18.9424 8.59375 18.9424C10.0264 18.9424 11.2568 18.5557 12.0391 17.8438L11.002 16.9473C10.4482 17.3076 9.82422 17.3867 9.00684 17.3867C8.37402 17.3867 7.8291 17.2373 7.31055 17.2373C6.82715 17.2373 6.59863 17.501 6.59863 17.835Z"
    fill="#1C1C1E" />
</svg>