<svg width="24" height="20" viewBox="0 0 24 20" fill="none" xmlns="http://www.w3.org/2000/svg">
  <path
    d="M7.43066 19.9626H16.3867C17.9687 19.9626 18.9795 18.9607 19.0059 17.3875L19.1201 9.14331L21.001 9.56519C21.9853 9.77612 22.6182 9.3894 22.8379 8.41382L23.6025 5.15308C23.8223 4.17749 23.4443 3.50073 22.5391 3.11401L16.4834 0.538818C15.9912 0.327881 15.6396 0.33667 15.2266 0.530029C14.0576 1.08374 13.1699 1.34741 11.9043 1.34741C10.6475 1.34741 9.75976 1.08374 8.59082 0.530029C8.17773 0.33667 7.82617 0.327881 7.33398 0.538818L1.27832 3.11401C0.373042 3.50073 -0.00488761 4.17749 0.214839 5.15308L0.979487 8.41382C1.19921 9.3894 1.83203 9.77612 2.8164 9.56519L4.69726 9.14331L4.81152 17.3875C4.83789 18.9607 5.84863 19.9626 7.43066 19.9626ZM7.44824 18.3455C6.82421 18.3455 6.4375 17.95 6.42871 17.3083L6.30566 7.50854C6.30566 7.29761 6.14746 7.15698 5.91015 7.20972L2.79003 7.89526C2.63183 7.93921 2.51757 7.8689 2.48242 7.71948L1.82324 4.94214C1.77929 4.73999 1.84082 4.6521 2.00781 4.58179L7.50976 2.2439C7.98437 4.26538 9.80371 5.68042 11.9043 5.68042C14.0137 5.68042 15.833 4.26538 16.3076 2.2439L21.8096 4.58179C21.9766 4.6521 22.0381 4.73999 21.9853 4.94214L21.335 7.71948C21.2998 7.8689 21.1855 7.93921 21.0273 7.89526L17.9072 7.20972C17.6699 7.15698 17.5117 7.29761 17.5117 7.50854L17.3887 17.3083C17.3799 17.95 16.9932 18.3455 16.3691 18.3455H7.44824ZM11.9043 2.8855C12.8711 2.8855 13.7148 2.73608 14.5322 2.43726C14.04 3.41284 13.0469 4.06323 11.9043 4.06323C10.7705 4.06323 9.77734 3.41284 9.28515 2.43726C10.1025 2.73608 10.9463 2.8855 11.9043 2.8855Z"
    fill="#1C1C1E" />
</svg>