<svg width="44" height="35" viewBox="0 0 44 35" fill="none" xmlns="http://www.w3.org/2000/svg">
  <path
    d="M6.0464 27.1188H9.04072V29.5497C9.04072 32.9948 10.8598 34.7978 14.3532 34.7978H37.9375C41.4309 34.7978 43.25 32.9948 43.25 29.5497V14.6747C43.25 11.2296 41.4309 9.42658 37.9375 9.42658H35.9735C35.5549 9.42658 35.2169 9.41048 34.9432 9.36219V5.45025C34.9432 2.00518 33.1241 0.202148 29.6468 0.202148H6.0464C2.55303 0.202148 0.75 2.00518 0.75 5.45025V21.8707C0.75 25.3319 2.55303 27.1188 6.0464 27.1188ZM6.25568 23.9152C4.77462 23.9152 3.9536 23.1425 3.9536 21.5809V5.74003C3.9536 4.17847 4.77462 3.42185 6.25568 3.42185H29.4375C30.9025 3.42185 31.7396 4.17847 31.7396 5.74003V6.77033C31.0795 6.31957 30.3712 6.09419 29.4053 6.09419H22.8854C21.5814 6.09419 20.7282 6.49666 19.8589 7.36597L18.6354 8.57336C17.911 9.28169 17.5246 9.42658 16.3172 9.42658H14.3532C10.8598 9.42658 9.04072 11.2296 9.04072 14.6747V23.9152H6.25568ZM14.5625 31.5781C13.0653 31.5781 12.2604 30.8054 12.2604 29.2599V14.9645C12.2604 13.4029 13.0653 12.6463 14.5625 12.6463H17.1866C18.5227 12.6463 19.3759 12.3726 20.1648 11.5677L21.6941 10.0705C22.2898 9.50707 22.7566 9.31389 23.6742 9.31389H28.6165C29.5341 9.31389 30.0009 9.50707 30.6127 10.0705L32.1259 11.5677C32.9148 12.3726 33.768 12.6463 35.1203 12.6463H37.7282C39.2254 12.6463 40.0303 13.4029 40.0303 14.9645V29.2599C40.0303 30.8054 39.2254 31.5781 37.7282 31.5781H14.5625ZM26.1534 29.5175C30.3551 29.5175 33.768 26.1046 33.768 21.8868C33.768 17.6851 30.3551 14.2883 26.1534 14.2883C21.9517 14.2883 18.5388 17.6851 18.5388 21.8868C18.5388 26.1046 21.9517 29.5175 26.1534 29.5175ZM35.8125 18.3612C36.8267 18.3612 37.6477 17.5563 37.6477 16.5421C37.6477 15.5279 36.8267 14.7069 35.8125 14.7069C34.7983 14.7069 33.9934 15.5279 33.9934 16.5421C33.9934 17.5563 34.7983 18.3612 35.8125 18.3612ZM26.1534 26.7325C23.4811 26.7325 21.3239 24.5592 21.3239 21.8868C21.3239 19.2306 23.4811 17.0573 26.1534 17.0573C28.8258 17.0573 30.983 19.2306 30.983 21.8868C30.983 24.5592 28.8258 26.7325 26.1534 26.7325Z"
    fill="#0CB100" />
</svg>