<svg width="40" height="39" viewBox="0 0 40 39" fill="none" xmlns="http://www.w3.org/2000/svg">
  <path
    d="M19.9906 38.5C30.6783 38.5 39.5 29.9004 39.5 19.5C39.5 9.09961 30.6595 0.5 19.9717 0.5C9.3028 0.5 0.5 9.09961 0.5 19.5C0.5 29.9004 9.32165 38.5 19.9906 38.5ZM19.9906 34.7147C11.3386 34.7147 4.42073 27.9342 4.42073 19.5C4.42073 11.0658 11.3386 4.30368 19.9717 4.30368C28.6237 4.30368 35.5793 11.0658 35.5981 19.5C35.617 27.9342 28.6426 34.7147 19.9906 34.7147ZM10.4903 21.8153H19.9717C20.8388 21.8153 21.4985 21.1721 21.4985 20.3453V8.32785C21.4985 7.50097 20.8388 6.85783 19.9717 6.85783C19.1423 6.85783 18.4826 7.50097 18.4826 8.32785V18.8752H10.4903C9.6421 18.8752 8.98236 19.5184 8.98236 20.3453C8.98236 21.1721 9.6421 21.8153 10.4903 21.8153Z"
    fill="#0CB100" />
</svg>