<svg width="250" height="96" viewBox="0 0 250 96" fill="none" xmlns="http://www.w3.org/2000/svg">
<path d="M243.049 243.109L239.861 242.773L236.819 241.342L234.968 240.162L233.382 239.794L231.879 239.83L228.743 240.597L218.847 244.978L216.02 245.558L213.695 243.757L211.04 242.643L207.56 242.094L203.017 243.001L200.052 244.475L199.118 245.236L196.059 248.909L195.621 249.791L195.582 250.69L195.444 251.585L194.13 254.232L189.886 259.856L188.493 261.998L188.189 262.085L187.781 262.268L187.39 262.051L186.699 261.821L186.108 261.596L181.387 261.995L173.551 262.661L170.962 262.35L162.496 261.388L159.25 260.048L158.255 259.906L157.556 259.876L156.744 260.141L155.861 259.703L154.739 257.854L153.674 257.007L152.897 256.474L152.427 255.753L151.366 254.807L148.042 252.963L147.043 252.921L146.335 253.091L145.601 253.86L144.477 254.412L137.685 256.424L136.269 256.764L135.438 255.127L134.951 254.806L133.961 254.564L133.631 255.25L132.836 255.116L132.419 255.499L132.103 255.886L131.573 256.564L131.382 256.355L131.191 256.147L130.917 255.535L130.834 255.131L130.751 254.727L130.668 254.323L130.685 253.923L130.794 253.728L131.006 253.437L131.84 252.671L132.048 252.48L132.161 252.185L132.612 251.003L132.584 249.3L132.84 248.01L132.782 247.007L132.296 246.685L132.13 245.878L132.238 245.682L132.447 245.491L132.655 245.3L133.267 245.025L133.58 244.738L133.801 244.247L133.831 243.548L133.665 242.74L133.338 241.025L133.168 240.317L132.89 239.805L131.43 238.841L130.777 237.712L130.807 237.013L131.024 236.622L131.145 236.127L131.279 235.332L131.201 234.828L130.918 234.415L130.14 233.882L129.179 232.94L128.884 232.827L128.684 232.819L128.38 232.906L128.172 233.097L127.868 233.184L127.277 232.959L126.308 232.217L124.416 229.634L123.534 229.196L125.148 226.562L125.773 225.988L130.314 222.779L132.432 220.067L132.791 218.681L132.352 217.261L131.603 216.028L131.259 214.712L131.198 213.809L131.23 210.707L131.364 209.912L131.898 209.134L134.25 205.631L136.867 202.941L137.53 201.468L136.157 200.808L133.764 200.606L133.364 200.589L132.947 200.972L132.301 202.045L131.976 202.632L131.389 202.306L131.006 201.89L130.441 201.065L129.946 200.943L125.125 201.338L123.751 200.679L119.775 197.706L119.301 197.086L119.031 196.373L118.557 195.753L117.792 194.919L117.005 194.585L115.52 194.222L112.127 193.977L111.632 193.855L111.241 193.638L110.722 191.715L110.457 190.902L109.388 190.156L106.607 189.637L105.816 189.403L99.4931 185.129L96.6683 183.307L96.2686 183.29L95.869 183.273L95.7563 183.568L95.6436 183.864L95.5266 184.259L95.2098 184.646L94.2936 185.007L93.2689 185.564L92.2271 186.52L88.96 185.68L87.691 184.925L84.4094 182.083L82.9961 180.02L82.6093 179.704L82.2182 179.487L81.9142 179.574L81.7101 179.665L81.5974 179.961L81.2763 180.447L80.9638 180.734L80.5599 180.817L79.6607 180.779L79.2653 180.662L78.87 180.545L78.1048 179.711L75.9709 178.119L75.397 177.494L74.9188 176.973L74.9444 176.373L74.9615 175.974L74.9743 175.674L74.8086 174.866L70.4732 168.576L69.2384 167.021L67.774 166.158L67.487 165.846L67.3043 165.437L66.873 163.817L64.956 161.834L64.7689 161.526L64.2292 160.101L63.611 158.173L63.7237 157.878L63.8406 157.482L64.4743 156.709L65.5015 153.75L67.2768 152.024L67.3852 151.828L67.5022 151.433L67.3109 151.225L66.9369 150.608L66.767 149.9L66.4843 149.488L66.293 149.279L65.5979 149.15L65.2111 148.833L64.8413 148.116L64.7183 146.31L64.6569 145.406L64.7824 144.811L64.8951 144.515L65.4458 143.338L65.6755 142.647L65.7883 142.352L66.0137 141.761L66.9812 140.201L67.1024 139.705L67.0153 139.401L66.9325 138.997L66.8539 138.494L66.7924 137.59L66.9136 137.095L67.0307 136.7L67.1476 136.304L66.9691 135.796L66.9862 135.396L67.099 135.101L68.0664 133.541L68.396 132.854L68.9638 131.277L69.0894 130.682L69.1107 130.182L69.0236 129.878L68.6453 129.362L68.5539 129.158L68.3712 128.749L68.4839 128.454L68.5923 128.258L69.413 127.793L69.8425 127.111L70.6187 125.342L71.482 123.878L71.599 123.482L71.7202 122.987L71.6587 122.084L71.6929 121.284L71.914 120.793L72.2436 120.107L72.2522 119.907L71.9567 119.794L71.4443 120.073L71.1403 120.16L70.9362 120.251L70.6408 120.138L70.3411 120.126L70.0371 120.213L69.7331 120.3L69.4376 120.187L69.0508 119.87L68.0329 117.925L67.6546 117.409L67.0765 116.883L66.6811 116.766L66.3814 116.754L66.0774 116.841L65.8691 117.032L65.7563 117.327L65.6095 118.422L65.4967 118.718L65.2842 119.009L65.0758 119.2L64.8674 119.391L64.6591 119.583L64.0468 119.857L63.0392 120.014L62.1528 119.676L61.9615 119.467L61.6746 119.155L61.5875 118.851L61.5175 118.147L61.5345 117.748L61.6516 117.352L61.9683 116.965L62.2809 116.679L62.4935 116.387L62.8103 116.001L62.7232 115.697L62.5276 115.588L62.2322 115.475L61.5328 115.445L60.8249 115.615L60.4253 115.598L60.0342 115.381L59.9428 115.177L60.0555 114.882L62.0819 111.966L62.3158 111.175L62.467 109.98L62.7863 107.191L62.9374 105.997L63.1671 105.306L63.571 105.223L64.9655 105.383L65.5734 105.209L66.2899 104.839L66.7151 104.256L67.2531 103.379L68.0506 101.111L68.2974 100.02L68.34 99.021L68.1573 98.6129L67.9661 98.4045L67.2923 97.7752L67.1053 97.4669L66.9225 97.0588L66.7612 96.151L66.6826 95.6472L66.4998 95.2391L66.1215 94.7224L65.9388 94.3143L65.7603 93.8062L65.7774 93.4065L65.8944 93.0112L66.2154 92.5244L66.9447 91.855L67.1573 91.5638L67.1743 91.1641L67.0915 90.7602L66.8046 90.4477L66.6219 90.0395L66.4434 89.5314L66.282 88.6237L66.299 88.2241L66.5159 87.833L68.9991 85.9373L69.3543 84.6512L69.2886 83.8477L68.0862 79.1921L67.725 78.2759L67.3467 77.7593L66.556 77.5253L65.6781 76.9873L65.3827 76.8746L65.0787 76.9617L62.5511 77.5544L61.7475 77.6202L60.6571 77.3734L60.8167 75.9789L60.7296 75.6749L60.4512 75.1626L60.0772 74.5461L59.7817 74.4334L59.4863 74.3206L54.3653 74.7024L52.567 74.6256L51.4509 74.9783L50.1606 74.7229L48.2137 73.4387L47.2317 72.9964L45.9413 72.7411L45.2506 72.5114L40.6914 69.1137L40.8169 68.5185L41.7716 67.2581L42.231 65.8764L41.3532 65.3385L39.0595 65.1404L38.0946 64.2984L35.9418 60.8034L34.8343 60.9562L32.889 61.9741L32.1769 62.244L30.8908 61.8888L30.621 61.1766L30.5681 60.0733L30.0369 58.4492L29.2632 57.8156L26.8697 57.6132L25.892 57.071L26.5213 56.3973L26.9679 55.3153L26.9807 55.0156L27.0148 54.2163L26.2369 53.6826L23.0014 54.4452L19.4644 52.8928L17.8787 52.5248L16.5013 51.9655L14.3972 49.6736L12.8243 49.0059L11.2087 49.3372L8.73829 50.9332L7.42668 51.1775L5.84091 50.8094L4.67193 50.0589L2.11096 46.7465L1.00595 44.4973L1.01021 44.3974L2.61727 44.2659L4.29866 44.7381L6.6965 44.8405L8.36081 45.7124L9.75096 45.9719L9.92347 44.2778L10.183 42.8876L11.3034 42.435L13.7011 42.5374L15.7523 43.726L17.6036 44.9061L19.5104 44.7874L21.056 43.7525L21.6367 41.8755L21.3754 40.9635L21.2609 38.9568L21.0995 38.0491L20.7298 37.3327L20.1559 36.7076L19.9945 35.7999L20.5452 34.6223L23.8704 31.7617L25.3075 30.9222L29.3679 29.5943L31.8742 29.5012L32.7605 29.8394L34.9774 31.8358L35.7869 33.9723L37.3239 33.1371L38.9481 32.606L40.4467 32.67L42.7361 32.968L42.6088 31.261L41.1614 29.9981L41.8779 29.6283L42.4901 29.3542L44.4627 30.039L46.2508 28.0135L49.108 26.7343L50.4238 26.3901L51.6971 27.0451L53.2597 25.6105L54.597 24.7668L55.7045 24.6139L56.4849 22.7455L56.6574 21.0513L58.6154 19.7337L59.7955 17.8824L60.0953 17.8952L60.8074 17.6253L62.1361 16.9815L63.1395 16.9243L63.8473 16.7543L64.1514 16.6672L64.5425 16.8841L65.586 18.2299L65.8814 18.3426L66.3895 18.1641L66.6978 17.9771L68.2476 16.8422L68.8556 16.668L69.1554 16.6808L69.5507 16.7978L70.0417 17.0189L70.5114 17.7397L71.0511 19.164L71.5165 19.9846L72.1074 20.21L76.5521 21.601L79.1813 23.3148L79.6723 23.536L81.7935 25.4282L81.9805 25.7365L82.3631 26.1532L82.5501 26.4615L82.9326 26.8782L84.9838 28.0668L85.1708 28.3751L85.8275 29.404L86.0145 29.7123L86.5098 29.8335L87.105 29.9591L89.7111 29.8702L90.9271 29.5218L92.0304 29.4688L99.638 31.7957L100.038 31.8127L101.02 32.2551L102.928 34.4385L105.891 35.3659L107.685 35.5426L108.368 35.9721L108.395 37.6748L108.357 38.574L108.348 38.7738L108.431 39.1777L108.622 39.3861L108.813 39.5944L109.205 39.8113L109.5 39.924L110 39.9454L113.227 39.3826L114.326 39.4295L114.817 39.6507L115.308 39.8719L116.268 40.8137L116.759 41.0349L117.354 41.1604L118.558 41.1117L119.066 40.9332L119.778 40.6634L120.282 40.5848L122.18 40.6659L122.788 40.4917L123.196 40.309L123.4 40.2176L123.7 40.2304L123.991 40.443L124.17 40.9511L124.053 41.3465L123.844 41.5378L123.328 41.916L123.119 42.1073L123.011 42.3029L123.094 42.7068L123.476 43.1235L125.141 43.9953L127.056 43.6768L128.931 41.9553L129.352 41.4728L130.094 40.5036L130.611 40.1253L132.764 38.9161L133.806 37.9597L134.423 37.5857L134.735 37.2987L134.844 37.1032L135.056 36.812L135.165 36.6165L135.173 36.4166L135.286 36.1212L135.416 35.4261L135.628 35.1349L135.837 34.9436L136.249 34.661L136.866 34.287L137.274 34.1042L137.491 33.7131L137.803 33.4262L138.111 33.2392L138.719 33.0649L139.215 33.1862L139.706 33.4074L140.554 34.6447L141.011 35.6651L141.198 35.9734L142.08 36.4114L144.078 36.4968L144.433 35.2108L144.567 34.4158L144.684 34.0204L144.909 33.4295L145.677 31.8608L146.102 31.2784L146.936 30.5133L148.16 29.9651L150.067 29.8464L151.653 30.2144L153.217 31.082L154.482 31.9367L155.764 32.3918L157.084 31.9478L161.113 29.0171L161.825 28.7472L162.754 28.0863L163.708 26.8259L164.831 23.9712L166.354 21.1336L166.852 18.8528L167.411 17.4754L168.453 16.519L169.881 15.8794L172.483 15.8905L174.146 14.4601L175.651 12.0221L180.209 8.41341L182.824 8.12476L185.313 8.43128L187.554 7.5261L187.218 6.01039L185.565 2.53665L185.763 0.243028L187.054 0.49833L188.732 3.37261L192.07 4.91645L192.054 7.61826L193.99 11.5044L194.317 13.22L195.344 14.9654L200.556 14.7877L204.839 15.2709L206.408 16.0386L208.193 16.4152L209.682 14.3768L211.593 14.1582L214.135 15.568L217.141 15.4962L218.822 15.9684L218.785 19.1698L218.388 21.4549L217.173 24.1055L214.401 28.0907L208.027 32.0223L207.889 32.9172L207.925 34.4201L210.905 34.9478L213.672 35.7666L218.447 36.4711L219.48 35.7145L220.052 34.0374L221.989 33.2193L224.102 30.6071L229.226 27.8233L229.627 30.1425L229.684 31.1459L229.59 33.3439L229.739 34.5513L230.204 35.3719L231.265 36.3181L231.535 37.0302L232.396 37.9678L230.335 41.6833L229.801 42.4612L228.985 42.8267L228.239 43.8958L227.679 45.2732L227.407 46.9631L227.526 48.8699L227.948 50.6896L227.976 52.3923L225.583 59.1964L225.241 60.1827L224.248 62.3423L221.852 64.542L217.406 67.8552L212.912 69.9654L209.304 72.4136L209.27 73.2129L209.619 74.4289L210.334 78.7633L210.47 80.2705L210.072 82.5556L209.209 84.0201L207.238 85.6374L207.969 87.2701L209.225 88.3247L210.702 88.8883L212.297 89.0565L213.765 89.8199L216.044 92.7198L217.995 93.9041L225.445 99.9276L226.488 101.273L228.772 106.375L229.542 107.109L230.911 107.868L232.889 110.755L237.108 112.737L241.204 117.616L241.582 118.133L243.699 120.125L241.517 124.336L240.798 127.108L242.146 128.366L242.39 129.678L241.072 132.424L239.254 135.149L235.312 138.384L235.511 143.097L236.988 148.364L238.437 151.93L237.843 154.106L239.465 155.977L241.807 157.378L243.884 157.968L245.844 158.952L246.957 161.001L246.851 163.499L245.271 165.333L245.241 166.033L246.267 167.778L245.895 169.464L245.006 171.528L244.474 174.608L245.101 176.336L249.643 180.134L248.276 181.677L247.63 182.75L247.387 183.741L247.24 184.835L246.894 185.921L245.171 188.751L244.725 189.832L244.113 197.113L243.416 199.385L242.227 201.436L240.852 203.179L236.472 207.296L235.387 209.252L235.48 211.758L236.598 213.707L237.959 214.666L238.902 216.008L239.07 219.118L239.641 222.145L241.254 224.216L244.627 227.262L245.437 229.399L246.112 232.33L246.08 235.432L245.078 237.791L243.585 239.929L242.888 242.202L243.049 243.109ZM169.106 127.748L168.927 127.24L169.066 126.345L170.935 122.421L170.873 121.518L169.383 121.254L168.306 120.708L167.732 120.083L166.85 119.645L165.302 118.377L160.746 112.578L160.559 112.269L160.563 112.169L160.493 111.466L160.518 110.866L160.644 110.271L160.891 109.181L160.904 108.881L160.816 108.577L160.725 108.373L159.573 107.223L159.29 106.81L159.112 106.302L158.921 106.094L158.521 106.077L156.75 107.703L156.542 107.894L156.325 108.285L156.212 108.58L155.908 108.668L155.708 108.659L154.348 107.7L152.59 109.026L152.16 109.708L152.048 110.004L151.835 110.295L151.431 110.378L150.723 110.548L147.934 110.229L146.857 109.682L146.565 109.469L146.374 109.261L146.287 108.957L146.434 107.862L146.347 107.558L146.168 107.05L146.181 106.751L146.29 106.555L146.394 106.459L146.198 106.351L145.399 106.317L145.195 106.408L144.887 106.595L144.657 107.286L144.436 107.777L144.11 108.364L143.277 109.129L142.665 109.403L140.45 109.709L140.246 109.8L139.461 111.768L139.348 112.064L139.331 112.463L139.318 112.763L139.405 113.067L139.492 113.371L139.675 113.779L139.766 113.983L139.758 114.183L139.749 114.383L139.146 114.457L136.108 112.926L135.517 112.701L135.313 112.792L135.105 112.984L134.88 113.574L134.667 113.866L134.554 114.161L134.541 114.461L134.72 114.969L134.794 115.573L134.647 116.667L134.271 118.453L133.93 121.741L135.039 123.891L134.927 124.186L135.009 124.59L132.913 126.803L132.705 126.994L132.093 127.268L131.884 127.459L131.776 127.655L131.659 128.05L131.429 128.741L131.295 129.536L131.278 129.936L131.352 130.539L131.439 130.843L131.809 131.56L131.705 131.655L131.392 131.942L131.184 132.134L131.076 132.329L130.863 132.62L130.85 132.92L130.842 133.12L130.733 133.315L130.729 133.415L129.995 134.185L129.783 134.476L129.774 134.676L129.77 134.776L129.866 134.88L130.061 134.988L131.217 136.039L131.608 136.255L131.904 136.368L134.376 137.074L134.58 136.983L134.884 136.896L135.201 136.509L135.414 136.218L135.618 136.126L138.679 134.756L139.079 134.773L139.669 134.998L140.543 135.636L141.113 136.361L141.412 136.374L141.916 136.295L143.948 135.582L144.357 135.399L144.461 135.303L144.561 135.307L144.656 135.412L144.839 135.82L145.296 136.84L145.591 136.953L145.787 137.061L147.611 136.539L148.219 136.365L148.51 136.577L148.893 136.994L149.658 137.827L150.028 138.544L150.31 138.956L151.683 139.615L153.981 139.714L154.115 138.919L154.128 138.619L154.145 138.219L153.971 137.611L153.984 137.311L153.901 136.908L154.014 136.612L154.226 136.321L154.43 136.23L154.639 136.038L155.855 135.69L156.458 135.616L156.854 135.733L157.245 135.949L157.51 136.762L157.693 137.17L157.976 137.582L158.267 137.795L159.062 137.929L159.661 137.954L159.866 137.863L160.17 137.776L160.378 137.585L160.491 137.289L160.895 137.206L161.494 137.232L164.244 138.45L165.609 139.31L167.382 139.986L167.777 140.103L168.585 139.937L168.972 140.254L169.342 140.97L169.56 142.881L169.596 144.384L169.579 144.784L169.675 144.888L169.666 145.088L170.365 145.118L171.454 143.062L171.767 142.776L171.871 142.68L173.591 142.253L173.695 142.157L173.899 142.066L174.003 141.97L174.116 141.675L174.328 141.384L174.445 140.988L174.471 140.389L174.318 139.281L174.348 138.582L174.682 137.795L174.999 137.409L175.211 137.117L176.657 136.078L176.77 135.783L176.991 135.292L176.925 134.488L177.042 134.093L177.155 133.797L177.367 133.506L177.884 133.128L177.993 132.932L178.01 132.533L177.444 131.708L176.962 131.287L174.12 129.864L172.798 128.006L171.92 127.468L169.106 127.748Z" fill="#6F9C76" fill-opacity="0.2" stroke="white" stroke-opacity="0.2" stroke-width="0.5" stroke-linecap="round" stroke-linejoin="round"/>
</svg>
