<svg width="50" height="33" viewBox="0 0 50 33" fill="none" xmlns="http://www.w3.org/2000/svg">
<path id="gamecontroller" d="M0 25.6255C0 29.8507 2.72944 32.5 6.67008 32.5C8.92187 32.5 10.9519 31.513 12.4872 29.7294L15.5237 26.145C15.9502 25.6255 16.3937 25.4004 16.9226 25.4004H33.0774C33.6063 25.4004 34.0498 25.6255 34.4763 26.145L37.5128 29.7294C39.0481 31.513 41.0781 32.5 43.3299 32.5C47.2706 32.5 50 29.8507 50 25.6255C50 23.8074 49.6076 21.7468 48.9423 19.461C47.8847 15.8766 46.0594 11.0455 44.3193 7.32251C42.8352 4.171 42.0334 2.62987 38.2804 1.76407C34.9881 1.00216 30.4845 0.5 25.0085 0.5C19.5326 0.5 15.0119 1.00216 11.7196 1.76407C7.98362 2.62987 7.16479 4.171 5.68066 7.32251C3.94063 11.0455 2.11532 15.8766 1.05766 19.461C0.392358 21.7468 0 23.8074 0 25.6255ZM3.2071 25.5909C3.2071 24.5346 3.44592 23.2706 3.97475 21.4351C5.11771 17.4351 7.09655 12.2749 8.80246 8.46537C9.62129 6.64719 10.0989 5.62554 12.1119 5.14069C15.2508 4.3961 19.6349 3.89394 25.0085 3.89394C30.3651 3.89394 34.7663 4.3961 37.9052 5.14069C39.9181 5.62554 40.3617 6.64719 41.1975 8.46537C42.9376 12.2749 44.8482 17.4351 46.0423 21.4351C46.5711 23.2706 46.7929 24.5346 46.7929 25.5909C46.7929 27.8247 45.2576 29.1926 43.2446 29.1926C42.0164 29.1926 40.8052 28.5346 39.8328 27.3918L36.404 23.4437C35.5681 22.4567 34.8857 21.9892 33.4186 21.9892H16.5984C15.1143 21.9892 14.4319 22.4567 13.596 23.4437L10.1842 27.3918C9.21187 28.5346 7.98362 29.1926 6.77243 29.1926C4.74241 29.1926 3.2071 27.8247 3.2071 25.5909ZM11.0713 13.1234C11.0713 14.0931 11.6684 14.6991 12.6237 14.6991H15.4896V17.5216C15.4896 18.4913 16.0696 19.1147 17.0078 19.1147C17.929 19.1147 18.509 18.4913 18.509 17.5216V14.6991H21.2044C22.245 14.6991 22.8762 14.0931 22.8762 13.1234C22.8762 12.1883 22.245 11.5823 21.2044 11.5823H18.509V8.77706C18.509 7.80736 17.929 7.18398 17.0078 7.18398C16.0696 7.18398 15.4896 7.80736 15.4896 8.77706V11.5823H12.6237C11.6684 11.5823 11.0713 12.1883 11.0713 13.1234ZM35.6534 12.9675C37.0863 12.9675 38.1781 11.8593 38.1781 10.4048C38.1781 8.95022 37.0863 7.82468 35.6534 7.82468C34.2545 7.82468 33.1286 8.95022 33.1286 10.4048C33.1286 11.8593 34.2545 12.9675 35.6534 12.9675ZM30.5868 18.1623C32.0198 18.1623 33.1116 17.0541 33.1116 15.6169C33.1116 14.1623 32.0198 13.0368 30.5868 13.0368C29.1709 13.0368 28.0621 14.1623 28.0621 15.6169C28.0621 17.0541 29.1709 18.1623 30.5868 18.1623Z" fill="#0CB100"/>
</svg>
