<svg width="71" height="54" viewBox="0 0 71 54" fill="none" xmlns="http://www.w3.org/2000/svg">
  <path
    d="M24.8186 54H45.3323C62.6099 54 70.1509 46.2279 70.1509 29.6437V9.41894C70.1509 3.23596 66.886 0 60.6453 0H9.50562C3.26485 0 0 3.20706 0 9.41894V29.6437C0 46.2279 7.51204 54 24.8186 54ZM24.9342 48.1926C11.557 48.1926 5.7496 42.3852 5.7496 29.8459V9.939C5.7496 7.19422 7.25201 5.7496 9.88122 5.7496H60.2697C62.87 5.7496 64.3724 7.19422 64.3724 9.939V29.8459C64.3724 42.3852 58.5939 48.1926 45.2167 48.1926H24.9342ZM27.6212 40.2761C29.3547 40.2761 30.3371 39.1493 30.3371 37.3002V30.7705H35.0177L39.6982 38.427C40.565 39.7849 41.2295 40.2761 42.4141 40.2761C43.8876 40.2761 44.8989 39.3226 44.8989 37.9647C44.8989 37.2713 44.7255 36.7223 44.2921 36.1156L40.2472 29.8748C43.5698 28.8058 45.7079 25.8299 45.7079 22.2761C45.7079 17.0177 41.9807 13.7817 35.9133 13.7817H27.8234C25.9454 13.7817 24.9631 14.9952 24.9631 16.9599V37.3002C24.9631 39.1204 25.8876 40.2761 27.6212 40.2761ZM30.3371 26.8122V17.8555H35.2488C38.2536 17.8555 40.2183 19.5024 40.2183 22.3917C40.2183 25.2231 38.2825 26.8122 35.1621 26.8122H30.3371Z"
    fill="white" />
</svg>