<svg width="39" height="40" viewBox="0 0 39 40" fill="none" xmlns="http://www.w3.org/2000/svg">
<path d="M19.5107 20.0961C24.6698 20.0961 28.8484 15.5339 28.8484 9.9483C28.8484 4.44802 24.6698 0.0776367 19.5107 0.0776367C14.3728 0.0776367 10.1516 4.51197 10.173 9.99094C10.1943 15.5552 14.3515 20.0961 19.5107 20.0961ZM19.5107 16.3653C16.5686 16.3653 14.0743 13.5725 14.0743 9.99094C14.053 6.49463 16.5473 3.80845 19.5107 3.80845C22.4953 3.80845 24.947 6.452 24.947 9.9483C24.947 13.5299 22.474 16.3653 19.5107 16.3653ZM6.20765 39.9227H32.7924C36.4805 39.9227 38.25 38.7502 38.25 36.2345C38.25 30.3718 30.9376 22.5691 19.5107 22.5691C8.08371 22.5691 0.75 30.3718 0.75 36.2345C0.75 38.7502 2.51947 39.9227 6.20765 39.9227ZM5.54676 36.1919C5.03511 36.1919 4.84323 36.0214 4.84323 35.6376C4.84323 32.3758 10.109 26.2999 19.5107 26.2999C28.891 26.2999 34.1568 32.3758 34.1568 35.6376C34.1568 36.0214 33.9649 36.1919 33.4532 36.1919H5.54676Z" fill="#2FBB25"/>
</svg>
