<svg width="29" height="31" viewBox="0 0 29 31" fill="none" xmlns="http://www.w3.org/2000/svg">
  <path
    d="M14.4934 30.5936C22.0296 30.5936 28.25 24.3732 28.25 16.8369C28.25 10.2444 23.4784 4.66198 17.2447 3.37271V1.41887C17.2447 0.408722 16.4871 0.116311 15.663 0.714426L11.1705 3.89108C10.4926 4.38286 10.4926 5.12719 11.1705 5.60568L15.6497 8.79562C16.4738 9.39374 17.2447 9.12791 17.2447 8.09118V6.17721C22.003 7.38673 25.4854 11.6799 25.4854 16.8369C25.4854 22.9377 20.5941 27.8423 14.4934 27.8423C8.39258 27.8423 3.48804 22.9377 3.50133 16.8369C3.51462 13.2881 5.17605 10.1912 7.78117 8.18422C8.40587 7.63927 8.60524 6.85507 8.12675 6.20379C7.68813 5.57909 6.82419 5.47276 6.10645 6.05759C2.87663 8.47663 0.75 12.5438 0.75 16.8369C0.75 24.3732 6.9704 30.5936 14.4934 30.5936Z"
    fill="white" />
</svg>