<svg width="26" height="41" viewBox="0 0 26 41" fill="none" xmlns="http://www.w3.org/2000/svg">
  <path
    d="M12.6909 8.55031C14.936 8.55031 16.7591 6.70545 16.7591 4.5587C16.7591 2.31132 14.936 0.5 12.6909 0.5C10.4458 0.5 8.67336 2.31132 8.67336 4.5587C8.67336 6.70545 10.4458 8.55031 12.6909 8.55031ZM18.4472 40.5C19.4094 40.5 20.2703 39.7956 20.2703 38.6216C20.2703 38.1855 20.1521 37.783 19.9158 37.3134L16.3033 30.0346C15.9826 29.3805 15.6112 28.7935 15.2736 28.3239L13.0623 25.2044L13.1973 24.7851C13.805 22.8564 14.0414 21.6824 14.1764 19.8375L14.5478 14.6551C14.7335 12.1059 13.248 10.0262 10.564 10.0262C8.60584 10.0262 7.18788 11.0828 5.36479 12.8438L2.59639 15.5776C1.65108 16.5 1.34723 17.2547 1.26283 18.4287L0.908339 22.6887C0.823937 23.8459 1.48228 24.6006 2.52887 24.6677C3.52481 24.7348 4.26756 24.1478 4.38572 22.9067L4.77397 18.2442L6.41138 16.8019C6.71523 16.5335 7.15412 16.6845 7.12036 17.1373L6.81651 21.3302C6.66459 23.3595 7.55925 24.8354 8.57208 26.0933L12.1845 30.6048C12.539 31.0409 12.5896 31.2086 12.7584 31.5273L16.6072 39.2925C17.063 40.1981 17.7382 40.5 18.4472 40.5ZM19.2405 20.6929H23.3256C24.5073 20.6929 25.25 20.0052 25.25 18.9654C25.25 17.9256 24.4904 17.2379 23.3087 17.2379H19.038L16.067 14.0346L15.7463 18.6467L17.0123 19.9046C17.62 20.5084 18.194 20.6929 19.2405 20.6929ZM2.07309 40.5C2.66391 40.5 3.1872 40.2317 3.55858 39.7956L8.99409 33.3721C9.55115 32.7013 9.61867 32.5335 9.855 31.8795C9.99004 31.4434 10.1082 31.0241 10.2095 30.6216L7.10348 26.7642L6.19193 30.9738L1.04338 37.0451C0.570729 37.5818 0.25 38.0514 0.25 38.7222C0.25 39.7621 1.04338 40.5 2.07309 40.5Z"
    fill="#0CB100" />
</svg>