<svg width="30" height="19" viewBox="0 0 30 19" fill="none" xmlns="http://www.w3.org/2000/svg">
  <path
    d="M6.4375 18.6055C9.28516 18.6055 11.6582 16.5225 12.0889 13.7891H13.4863C13.8027 14.4219 14.4707 14.8613 15.2441 14.8613C16.3252 14.8613 17.1953 13.9912 17.1953 12.9189C17.1953 12.4443 17.0195 12.0049 16.7295 11.6621L21.0449 7.04785L21.3789 7.90039C19.6387 8.87598 18.4609 10.748 18.4609 12.8838C18.4609 16.0479 21.0273 18.6143 24.2002 18.6143C27.3555 18.6143 29.9131 16.0479 29.9131 12.8838C29.9131 9.71973 27.3555 7.16211 24.2002 7.16211C23.7168 7.16211 23.2422 7.22363 22.7939 7.33789L20.3066 1.03613C20.1309 0.579102 19.8145 0.385742 19.2607 0.385742H16.624C16.1934 0.385742 15.8418 0.737305 15.8418 1.16797C15.8418 1.58984 16.1934 1.94141 16.624 1.94141H18.9531C19.0322 1.94141 19.0498 1.95898 19.0762 2.01172L20.4824 5.59766L12.6689 6.70508L11.5176 4.55176H12.4844C12.915 4.55176 13.2578 4.20898 13.2578 3.77832C13.2578 3.34766 12.9062 2.99609 12.4844 2.99609H8.72266C8.30078 2.99609 7.94922 3.34766 7.94922 3.77832C7.94922 4.20898 8.29199 4.55176 8.72266 4.55176H9.83887L11.0693 6.91602L9.80371 8.25195C8.86328 7.56641 7.69434 7.16211 6.4375 7.16211C3.26465 7.16211 0.707031 9.71973 0.707031 12.8838C0.707031 16.0479 3.27344 18.6055 6.4375 18.6055ZM15.2441 10.9766C15.1475 10.9766 15.0596 10.9854 14.9629 10.9941L13.3896 8.0498L18.9355 7.26758L15.3936 10.9766C15.3408 10.9766 15.2969 10.9766 15.2441 10.9766ZM12.1416 12.3389C12.0273 11.1787 11.5703 10.1152 10.876 9.2627L11.7988 8.30469L13.6357 11.8203C13.5215 11.9785 13.4424 12.1543 13.3809 12.3389H12.1416ZM6.4375 17.041C4.13477 17.041 2.28906 15.1953 2.28906 12.8838C2.28906 10.5898 4.14355 8.73535 6.4375 8.73535C7.28125 8.73535 8.05469 8.98145 8.70508 9.40332L6.57812 11.6445C6.53418 11.6357 6.49023 11.6357 6.4375 11.6357C5.74316 11.6357 5.19824 12.1719 5.18945 12.8838C5.18066 13.5781 5.73438 14.1318 6.4375 14.1318C6.77148 14.1318 7.0791 14 7.29883 13.7891H10.4893C10.085 15.6523 8.42383 17.041 6.4375 17.041ZM24.2002 17.041C21.8975 17.041 20.043 15.1953 20.043 12.8838C20.043 11.416 20.8076 10.124 21.959 9.38574L23.0928 12.2861C23.0049 12.4619 22.9434 12.6641 22.9434 12.8838C22.9346 13.5781 23.4883 14.1318 24.2002 14.1318C24.8945 14.1318 25.4395 13.5781 25.4395 12.8838C25.4395 12.2949 25.0527 11.8115 24.5078 11.6709L23.3828 8.81445C23.6465 8.76172 23.9189 8.73535 24.2002 8.73535C26.4854 8.73535 28.3486 10.5986 28.3486 12.8838C28.3486 15.1865 26.4854 17.041 24.2002 17.041ZM7.92285 12.3389L9.77734 10.4141C10.1816 10.959 10.4629 11.6182 10.5596 12.3389H7.92285ZM15.2529 13.543C14.8926 13.543 14.6113 13.2617 14.6113 12.9365C14.6113 12.585 14.9014 12.2861 15.2529 12.2861C15.6045 12.2861 15.877 12.5762 15.877 12.9365C15.877 13.2705 15.6045 13.543 15.2529 13.543Z"
    fill="#1C1C1E" />
</svg>