<svg width="22" height="17" viewBox="0 0 22 17" fill="none" xmlns="http://www.w3.org/2000/svg">
  <path
    d="M2.03223 16.854H3.0957C3.76367 16.854 4.28223 16.3354 4.28223 15.6675V14.2349C6.21582 14.3491 8.85254 14.4194 11.0146 14.4194C13.168 14.4194 15.8047 14.3491 17.7383 14.2349V15.6675C17.7383 16.3354 18.2568 16.854 18.9336 16.854H19.9883C20.665 16.854 21.1836 16.3354 21.1836 15.6675V13.356C21.4736 13.0132 21.6318 12.5562 21.6318 11.9937V10.4468C21.6318 8.8999 21.3594 8.02979 20.5244 6.9751L19.7422 5.99072C19.417 4.40869 18.8369 2.74756 18.5293 2.09717C18.0371 1.06006 17.0879 0.444824 15.875 0.277832C15.2334 0.189941 13.3525 0.145996 11.0146 0.145996C8.67676 0.145996 6.78711 0.19873 6.1543 0.277832C4.94141 0.427246 3.9834 1.06006 3.5 2.09717C3.19238 2.74756 2.6123 4.40869 2.28711 5.99072L1.50488 6.9751C0.669922 8.02979 0.397461 8.8999 0.397461 10.4468V11.9937C0.397461 12.5562 0.555664 13.0132 0.845703 13.356V15.6675C0.845703 16.3354 1.36426 16.854 2.03223 16.854ZM11.0146 12.9956C8 12.9956 4.25586 12.855 2.83203 12.688C2.07617 12.6001 1.79492 12.2134 1.79492 11.5454V10.3677C1.79492 9.18115 2.02344 8.61865 2.63867 7.80127L3.58789 6.56201C3.80762 5.38428 4.37891 3.55615 4.73926 2.77393C5.03809 2.1499 5.60059 1.78955 6.36523 1.69287C6.97168 1.61377 8.68555 1.54346 11.0146 1.54346C13.3438 1.54346 15.084 1.62256 15.6465 1.69287C16.4375 1.78955 16.9824 2.15869 17.2812 2.78271C17.6592 3.54736 18.2129 5.3667 18.4326 6.56201L19.3818 7.80127C20.0059 8.61865 20.2256 9.18115 20.2256 10.3677V11.5454C20.2256 12.2134 19.9443 12.6001 19.1973 12.688C17.7734 12.855 14.0293 12.9956 11.0146 12.9956ZM4.7832 5.68311C4.69531 6.04346 4.85352 6.21045 5.23145 6.19287C6.52344 6.11377 8.14941 6.03467 11.0146 6.03467C13.8799 6.03467 15.5059 6.11377 16.7891 6.19287C17.1758 6.21045 17.3252 6.04346 17.2461 5.68311C17.0527 4.83936 16.6924 3.73193 16.4375 3.29248C16.1914 2.85303 15.9102 2.66846 15.3916 2.59814C14.7939 2.51904 13.3613 2.45752 11.0146 2.45752C8.66797 2.45752 7.22656 2.51904 6.6377 2.59814C6.11914 2.66846 5.8291 2.85303 5.5918 3.29248C5.33691 3.73193 4.97656 4.83936 4.7832 5.68311ZM4.65137 11.8618C5.49512 11.8618 6.12793 11.229 6.12793 10.394C6.12793 9.55029 5.49512 8.91748 4.65137 8.91748C3.81641 8.91748 3.18359 9.55029 3.18359 10.394C3.18359 11.229 3.81641 11.8618 4.65137 11.8618ZM17.3691 11.8618C18.2129 11.8618 18.8457 11.229 18.8457 10.394C18.8457 9.55029 18.2129 8.91748 17.3691 8.91748C16.5342 8.91748 15.9014 9.55029 15.9014 10.394C15.9014 11.229 16.5342 11.8618 17.3691 11.8618ZM8.6416 11.4927H13.3877C14.0117 11.4927 14.4512 11.0532 14.4512 10.4292C14.4512 9.80518 14.0117 9.36572 13.3877 9.36572H8.6416C8.00879 9.36572 7.56934 9.80518 7.56934 10.4292C7.56934 11.0532 8.00879 11.4927 8.6416 11.4927Z"
    fill="#1C1C1E" />
</svg>