<svg width="29" height="17" viewBox="0 0 29 17" fill="none" xmlns="http://www.w3.org/2000/svg">
  <path
    d="M18.9929 15.5105L10.696 1.1433C10.3444 0.53392 9.83661 0.34642 9.25067 0.401108C8.7663 0.463608 8.13349 0.705795 7.53192 1.05736C5.61786 2.16673 4.85224 3.90892 3.0163 4.96361C2.21942 5.42455 1.50849 5.60423 1.15692 5.80736C0.688174 6.0808 0.477236 6.55736 0.758486 7.04173L3.89911 12.4792C4.25067 13.0886 4.75849 13.2683 5.34442 13.2136C5.8288 13.1667 6.46161 12.9089 7.06317 12.5574C8.97724 11.448 9.74286 9.71361 11.571 8.65111C12.1335 8.3308 12.6491 8.15111 12.985 8.0183L17.735 16.237C17.9304 16.5886 18.3757 16.7136 18.7272 16.5105C19.071 16.3074 19.196 15.8542 18.9929 15.5105ZM15.2429 7.03392L16.0866 8.49486L16.3522 8.0183C16.696 8.15111 17.2038 8.3308 17.7663 8.65111C19.5944 9.71361 20.36 11.448 22.2819 12.5574C22.8757 12.9089 23.5085 13.1667 23.9929 13.2136C24.5788 13.2683 25.0944 13.0886 25.446 12.4792L28.5788 7.04173C28.86 6.55736 28.6569 6.0808 28.1882 5.80736C27.8288 5.60423 27.1179 5.42455 26.321 4.96361C24.4929 3.90892 23.7272 2.16673 21.8054 1.05736C21.2116 0.705795 20.5788 0.463608 20.0866 0.401108C19.5007 0.34642 19.0007 0.53392 18.6413 1.1433L15.2429 7.03392ZM12.2272 6.71361C11.7819 6.85423 11.2429 7.15892 10.8444 7.38548C8.79755 8.56517 8.11005 10.2761 6.32099 11.2995C6.1413 11.4089 5.63349 11.6902 5.14911 11.7214L2.36786 6.90111C2.82099 6.7683 3.35224 6.46361 3.75067 6.23705C5.79755 5.05736 6.48505 3.35423 8.2663 2.32298C8.4538 2.21361 8.96161 1.92455 9.44599 1.8933L12.2272 6.71361ZM17.11 6.71361L19.8913 1.8933C20.3757 1.92455 20.8835 2.21361 21.071 2.32298C22.86 3.35423 23.5475 5.05736 25.5944 6.23705C25.985 6.46361 26.5241 6.7683 26.9772 6.90111L24.1882 11.7214C23.7116 11.6902 23.2038 11.4089 23.0163 11.2995C21.2272 10.2761 20.5397 8.56517 18.4929 7.38548C18.1022 7.15892 17.5632 6.85423 17.11 6.71361ZM14.1022 11.9245L13.2585 10.4636L10.3444 15.5105C10.1491 15.8542 10.2663 16.3074 10.6179 16.5105C10.9694 16.7136 11.4069 16.5886 11.61 16.237L14.1022 11.9245Z"
    fill="#1C1C1E" />
</svg>