<svg width="30" height="17" viewBox="0 0 30 17" fill="none" xmlns="http://www.w3.org/2000/svg">
  <path
    d="M2.7832 16.0049C1.35059 16.0049 0.27832 15.3984 0.27832 14.3086C0.27832 13.3682 0.955078 12.9463 1.85156 12.6475C2.04492 12.5859 2.24707 12.5244 2.44922 12.4629H1.92188C0.726562 12.4629 0.102539 11.9355 0.102539 11.1357C0.102539 10.0107 1.5791 9.67676 2.51953 7.88379C5.29688 2.63672 7.31836 0.949219 11.124 0.94043C14.7012 0.949219 16.8809 2.69824 19.2363 7.04004L19.7285 7.94531C20.4316 7.56738 20.8887 6.93457 21.1523 5.94141C21.6709 3.84961 23.0244 2.35547 25.4414 2.35547C27.876 2.35547 29.8975 4.31543 29.8975 7.84863C29.8975 9.52734 28.0957 10.3975 25.6172 10.3975C23.0156 10.3975 22.5938 12.1904 19.3418 12.4365C19.4824 12.4717 19.623 12.5068 19.7549 12.542C20.8271 12.832 21.6885 13.2363 21.6885 14.335C21.6885 15.416 20.625 16.0225 19.1836 16.0225C17.5137 16.0225 15.7998 15.3193 14.4375 14.0449C13.5498 14.4932 12.5391 14.8623 11.0273 14.8623C9.6123 14.8623 8.61035 14.4229 7.63477 13.9219C6.24609 15.293 4.48828 16.0049 2.7832 16.0049ZM11.124 2.5752C8.94434 2.58398 7.49414 3.25195 6.03516 5.1416C7.43262 6.27539 9.12012 6.89062 11.0273 6.89062C12.9609 6.89062 14.6748 6.24023 16.0986 5.08008C14.8682 3.54199 13.3916 2.58398 11.124 2.5752ZM21.627 10.4238C22.7256 9.68555 23.7275 8.89453 25.8896 8.89453C27.1729 8.89453 28.4033 8.36719 28.4033 7.62012C28.4033 5.42285 27.0674 3.91113 25.4414 3.91113C23.8594 3.91113 22.9277 4.92188 22.5234 6.69727C22.1719 8.14746 21.5479 8.82422 20.5986 9.16699C20.8535 9.6416 21.2666 10.1338 21.627 10.4238ZM25.749 7.0752C25.3008 7.0752 24.9316 6.70605 24.9316 6.25781C24.9316 5.81836 25.3008 5.44922 25.749 5.44922C26.1885 5.44922 26.5576 5.81836 26.5576 6.25781C26.5576 6.70605 26.1885 7.0752 25.749 7.0752ZM17.9092 7.91016C17.5488 7.26855 17.1973 6.66211 16.8369 6.1084C16.125 6.68848 15.2637 7.20703 14.2793 7.58496C14.4111 8.74512 15.0439 10.3623 15.8701 11.4697C16.6875 11.1182 17.6279 10.8545 18.8584 10.8281C19.2363 10.8193 19.6143 10.8193 19.9395 10.8193C19.1924 10.0986 18.5156 9 17.9092 7.91016ZM3.41602 10.8281C4.62012 10.8281 5.55176 11.0918 6.36035 11.4521C7.14258 10.3711 7.77539 8.7627 7.94238 7.64648C6.90527 7.28613 6.03516 6.75879 5.31445 6.1875C4.875 6.86426 4.42676 7.66406 3.94336 8.58691C3.4248 9.62402 2.73926 10.2217 2.15039 10.7314L2.21191 10.8545C2.60742 10.8369 3.01172 10.8281 3.41602 10.8281ZM11.0273 13.2363C12.583 13.2363 13.6201 12.6211 14.7627 12.0146C13.9277 10.8809 13.2949 9.25488 13.1631 7.91895C12.5039 8.07715 11.792 8.16504 11.0273 8.16504C10.3154 8.16504 9.65625 8.08594 9.04102 7.9541C8.87402 9.24609 8.25 10.8633 7.44141 11.9971C8.56641 12.6123 9.57715 13.2363 11.0273 13.2363ZM1.71094 14.1064C1.71094 14.502 2.08887 14.7393 2.82715 14.7393C3.86426 14.7393 5.00684 14.2646 6.29004 13.2275C5.82422 13.0166 5.33203 12.8145 4.77832 12.6738C3.9873 13.0342 2.94141 13.3594 2.55469 13.4561C1.93066 13.6143 1.71094 13.8164 1.71094 14.1064ZM19.4121 13.4736C19.0342 13.377 17.9883 13.0605 17.1973 12.7002C16.6699 12.8584 16.2041 13.0781 15.7559 13.3154C17.0127 14.3086 18.1201 14.7568 19.1396 14.7568C19.8779 14.7568 20.2559 14.5195 20.2559 14.1328C20.2559 13.834 20.0361 13.6318 19.4121 13.4736Z"
    fill="#1C1C1E" />
</svg>