<svg width="294" height="123" viewBox="0 0 294 123" fill="none" xmlns="http://www.w3.org/2000/svg">
<g clip-path="url(#clip0_141_306)">
<mask id="mask0_141_306" style="mask-type:luminance" maskUnits="userSpaceOnUse" x="0" y="0" width="294" height="123">
<path d="M294 0H0V123H294V0Z" fill="white"/>
</mask>
<g mask="url(#mask0_141_306)">
<path d="M0 88.7203C21.2403 79.5553 40.4565 65.8322 48.7208 55.9922C54.7795 48.7827 55.9521 44.5029 56.0498 42.4501C56.1336 40.7312 53.2369 42.3596 52.7204 42.5962C49.0139 44.3081 45.1261 45.6999 40.7076 46.354C37.3503 46.8482 35.0398 46.8342 31.6196 46.2566C37.9645 43.7236 44.5258 38.052 49.8864 31.5453C55.5333 24.6977 59.5189 16.0685 60.3914 7.1193C60.4403 6.59042 60.3565 6.24943 60.3356 6.40253C58.7861 15.1221 53.9838 23.1459 48.295 29.8055C42.5644 36.5002 35.4657 42.29 27.4316 45.9992C26.943 46.2218 25.9379 46.5768 27.4316 47.2935C31.2846 48.9428 35.6611 49.0263 39.7654 48.5183C44.0581 47.9894 48.288 46.7438 52.0992 44.6978C51.6594 46.3053 50.6961 47.8432 49.8446 49.1933C47.9739 52.13 45.6845 54.8092 43.3113 57.3562C36.9036 64.2247 29.5396 70.2582 21.7498 75.4843C15.1327 79.9172 0 88.7203 0 88.7203Z" fill="white"/>
<path d="M181.307 101.692L178.697 96.6117C174.055 99.3465 170.37 101.845 168.136 103.216C159.746 108.386 145.283 119.298 134.262 120.202C123.101 121.128 115.646 119.208 105.344 113.822C95.3832 108.609 88.5567 99.6249 83.2589 89.9798C90.0505 93.5288 97.2958 95.5956 105.009 96.1245C116.345 96.8969 124.644 94.2317 131.289 91.0515C133.669 89.7849 130.248 88.8733 129.488 88.6297C118.376 85.0458 107.459 80.613 97.4842 74.489C89.3594 69.5134 81.6464 63.132 76.9768 54.7046C76.7953 54.3845 76.6278 54.0575 76.4602 53.7305C84.9061 57.8432 95.5019 60.585 104.541 57.6693C105.225 57.4465 107.151 55.7694 104.869 54.809C92.2352 50.3901 77.3049 33.4728 69.2987 15.4561C67.1349 10.5848 65.0479 2.2618 64.8804 -0.00683594C63.7007 3.37522 66.4579 12.756 68.845 18.4762C77.5422 39.3253 92.8565 51.942 99.7178 55.498C90.7275 56.5697 82.128 54.1341 74.9735 50.9051C72.6212 49.7151 71.4416 49.6524 72.2583 51.8932C82.3235 73.7166 110.753 84.0367 121.272 87.906C123.017 88.5393 124.769 89.1586 126.536 89.7431C119.877 92.7146 112.777 94.5449 105.42 94.35C96.8351 94.1204 88.7033 90.9193 81.3393 86.6951C78.2821 84.9484 78.7777 87.4676 79.1964 88.3235C87.405 105.213 95.8858 113.55 107.075 118.33C117.105 122.624 130.018 124.309 140.782 121.872C150.582 119.659 157.52 114.838 161.477 112.68C163.801 111.413 171.835 106.577 181.287 101.692H181.307Z" fill="white"/>
<path d="M190.409 110.022C190.409 110.022 209.771 99.7988 219.942 99.7988C229.539 99.7988 237.524 101.253 245.865 104.524C250.276 106.249 259.72 110.028 262.157 110.926C264.6 111.824 270.714 115.039 280.542 115.004C290.391 114.97 287.571 114.851 288.199 115.004C288.848 115.151 290.573 116.577 291.926 118.407C293.274 120.237 293.616 120.836 293.309 121.218C293.016 121.594 288.025 122.45 282.545 122.04C277.059 121.629 272.361 121.253 260.139 115.568C247.897 109.882 235.026 102.736 222.301 102.2C209.576 101.678 190.89 110.056 190.89 110.056L190.409 110.022Z" fill="white"/>
<path d="M168.722 108.546C172.205 106.57 176.575 104.134 181.3 101.692C191.77 96.2774 203.971 90.7867 211.991 90.0283C234.188 87.9128 258.709 100.78 263.741 103.577C264.341 103.905 264.795 104.204 264.837 104.141C264.858 104.079 264.384 103.758 263.818 103.368C259.191 100.119 236.833 85.2056 218.162 84.1548C203.782 83.3685 188.908 90.578 178.689 96.6045C174.529 99.0541 171.137 101.316 168.869 102.742M177.768 103.521C177.028 103.905 176.742 104.051 177.768 103.521ZM178.333 103.229C178.159 103.32 177.998 103.404 177.852 103.48C177.991 103.411 178.152 103.327 178.333 103.229ZM181.013 101.845C181.084 101.81 181.154 101.775 181.223 101.733C181.174 101.761 181.104 101.796 181.013 101.845ZM179.451 102.652C179.569 102.589 179.688 102.527 179.813 102.464C179.694 102.527 179.569 102.589 179.451 102.652ZM180.107 102.311C180.329 102.199 180.56 102.074 180.811 101.949C180.616 102.053 180.372 102.172 180.107 102.311Z" fill="white"/>
<path d="M105.817 25.2192V0.090332H118.905V3.95257H111.088V10.3896H118.556V14.2518H111.088V25.2123H105.817V25.2192Z" fill="white"/>
<path d="M132.411 23.4449H132.342C131.364 25.0106 130.039 25.5673 128.189 25.5673C125.851 25.5673 123.792 24.1755 123.792 21.7399V7.64795H128.712V19.8262C128.712 21.3919 128.992 22.5401 130.562 22.5401C132.133 22.5401 132.411 21.3919 132.411 19.8262V7.64795H137.333V21.7399C137.333 22.8882 137.402 24.0711 137.507 25.2194H132.411V23.4449Z" fill="white"/>
<path d="M148.534 7.64825V9.90991H148.603C149.511 7.89181 151.186 7.30029 153.175 7.30029V11.6845C148.848 11.4061 148.778 13.9113 148.778 15.6511V25.2196H143.857V7.64825H148.534Z" fill="white"/>
<path d="M156.107 7.64803H158.097V4.86444L163.017 2.67236V7.64803H165.565V10.6752H163.017V20.0698C163.017 21.392 162.982 22.2619 164.588 22.2619C164.902 22.2619 165.216 22.2619 165.46 22.1923V25.2194C164.797 25.289 164.1 25.3934 162.912 25.3934C158.655 25.3934 158.097 22.575 158.097 21.4964V10.6752H156.107V7.64803Z" fill="white"/>
<path d="M168.849 7.64795H173.734L176.143 20.87H176.212L179.598 7.64795H184.693L187.799 20.87H187.869L190.521 7.64795H195.233L190.452 25.2193H185.287L182.111 13.2152H182.04L178.48 25.2193H173.246L168.849 7.64795Z" fill="white"/>
<path d="M213.553 21.9484C213.553 23.0271 213.693 24.1405 213.798 25.2192H209.226L209.016 22.888H208.946C207.899 24.6972 206.468 25.5671 204.339 25.5671C200.92 25.5671 199.663 23.0271 199.663 19.9651C199.663 14.1544 204.165 13.9108 208.737 13.9804V12.6235C208.737 11.1272 208.527 10.0486 206.748 10.0486C204.967 10.0486 204.898 11.336 204.898 12.7278H200.082C200.082 10.6053 200.745 9.24832 201.896 8.44804C203.014 7.61296 204.619 7.2998 206.503 7.2998C212.751 7.2998 213.553 9.97901 213.553 13.1802V21.9484ZM204.48 19.7563C204.48 21.009 204.689 22.54 206.294 22.54C209.191 22.54 208.737 18.6429 208.737 16.7292C206.294 16.8336 204.48 16.6248 204.48 19.7563Z" fill="white"/>
<path d="M225.175 9.42279H225.245C225.733 8.6225 226.326 8.10058 226.99 7.78742C227.688 7.43947 228.491 7.30029 229.398 7.30029C231.736 7.30029 233.796 8.69209 233.796 11.1278V25.2196H228.874V13.1111C228.874 11.5452 228.596 10.3274 227.025 10.3274C225.455 10.3274 225.175 11.5452 225.175 13.1111V25.2196H220.254V7.64825H225.175V9.42279Z" fill="white"/>
<path d="M253.794 7.64775V25.9499C253.794 27.1677 253.864 31.9694 247.094 31.9694C243.429 31.9694 240.288 31.03 240.184 26.7502H245C245 27.4808 245.104 28.1072 245.419 28.5247C245.732 28.977 246.291 29.2206 247.059 29.2206C248.28 29.2206 248.874 28.0724 248.874 26.2979V22.9227H248.803C248.071 24.2797 246.675 24.9756 245.069 24.9756C239.66 24.9756 239.904 20.0348 239.904 16.0681C239.904 12.1015 239.974 7.2998 245.104 7.2998C246.85 7.2998 248.351 8.0653 249.048 9.70065H249.118V7.64775H253.794ZM246.85 21.9484C248.629 21.9484 248.874 20.1044 248.874 16.3813C248.874 12.6582 248.699 10.327 246.885 10.327C245.069 10.327 244.72 11.6144 244.72 16.9728C244.72 18.6082 244.476 21.9484 246.85 21.9484Z" fill="white"/>
<path d="M264.928 17.2163C264.928 19.304 264.997 22.4356 267.161 22.4356C268.907 22.4356 269.255 20.7654 269.255 19.304H274.246C274.176 21.2178 273.548 22.7836 272.361 23.8622C271.21 24.9408 269.465 25.5671 267.161 25.5671C260.81 25.5671 259.972 21.7049 259.972 16.2073C259.972 11.4056 260.67 7.2998 267.161 7.2998C273.653 7.2998 274.526 11.5796 274.35 17.2163H264.928ZM269.43 14.4675C269.43 12.7626 269.5 10.327 267.161 10.327C264.823 10.327 264.928 12.9714 264.928 14.4675H269.43Z" fill="white"/>
<path d="M285.379 9.4223H285.449C285.938 8.62201 286.531 8.10009 287.195 7.78694C287.892 7.43898 288.695 7.2998 289.602 7.2998C291.941 7.2998 294 8.69161 294 11.1272V25.2192H289.079V13.1105C289.079 11.5448 288.8 10.327 287.229 10.327C285.659 10.327 285.379 11.5448 285.379 13.1105V25.2192H280.458V7.64775H285.379V9.4223Z" fill="white"/>
<path d="M175.869 52.3523C175.869 51.9627 175.806 51.6286 175.674 51.3363C175.548 51.051 175.381 50.8144 175.171 50.6334C174.962 50.4526 174.731 50.3133 174.466 50.2298C174.201 50.1394 173.943 50.0976 173.678 50.0976C173.328 50.0976 173.028 50.1324 172.791 50.2089C172.547 50.2855 172.351 50.383 172.205 50.5152C172.051 50.6405 171.947 50.7935 171.877 50.9675C171.806 51.1415 171.779 51.3294 171.779 51.5311C171.779 51.7678 171.821 52.0044 171.912 52.241C171.995 52.4776 172.128 52.7142 172.295 52.9368L172.268 53.0204C171.988 53.1596 171.702 53.2291 171.415 53.2291C171.248 53.2291 171.087 53.2013 170.948 53.1527C170.802 53.1039 170.676 53.0274 170.572 52.9299C170.466 52.8325 170.383 52.7073 170.32 52.568C170.257 52.4219 170.229 52.2619 170.229 52.0879C170.229 51.7956 170.299 51.5242 170.439 51.2667C170.578 51.0093 170.767 50.7796 170.997 50.5639C171.228 50.3551 171.5 50.1602 171.806 49.9932C172.114 49.8262 172.428 49.6871 172.757 49.5687C173.085 49.4505 173.413 49.3669 173.741 49.3043C174.069 49.2417 174.375 49.2139 174.655 49.2139C175.171 49.2139 175.618 49.2834 175.987 49.4226C176.358 49.5618 176.658 49.7635 176.888 50.028C177.119 50.2924 177.286 50.6126 177.39 50.9884C177.496 51.3642 177.551 51.7887 177.551 52.2619C177.551 52.5889 177.538 52.9439 177.509 53.3335C177.481 53.7232 177.453 54.1339 177.419 54.5584C177.384 54.9829 177.356 55.4212 177.328 55.8806C177.301 56.3329 177.286 56.7852 177.286 57.2306C177.286 57.9404 177.419 58.4763 177.684 58.8311C177.949 59.1861 178.298 59.367 178.724 59.367C179.108 59.367 179.527 59.2278 180.001 58.9424L180.218 59.2626C179.89 59.5897 179.527 59.8402 179.136 60.0142C178.745 60.1882 178.333 60.2717 177.907 60.2717C177.586 60.2717 177.293 60.216 177.021 60.1116C176.749 60.0002 176.511 59.8402 176.315 59.6244C176.121 59.4087 175.967 59.1374 175.855 58.8173C175.744 58.4901 175.694 58.1144 175.694 57.6899C175.694 57.5646 175.694 57.4324 175.709 57.3072C175.716 57.1819 175.73 57.0427 175.757 56.9035H175.716C175.507 57.328 175.255 57.7455 174.975 58.1561C174.697 58.5667 174.39 58.9355 174.054 59.2556C173.719 59.5757 173.363 59.8402 172.987 60.0351C172.609 60.2368 172.212 60.3343 171.8 60.3343C171.458 60.3343 171.15 60.2786 170.865 60.1604C170.585 60.042 170.341 59.882 170.138 59.6732C169.936 59.4644 169.782 59.2208 169.671 58.9355C169.56 58.6502 169.503 58.344 169.503 58.01C169.503 57.5785 169.588 57.1819 169.747 56.8269C169.908 56.472 170.131 56.1519 170.418 55.8735C170.704 55.5952 171.039 55.3517 171.437 55.1429C171.834 54.9411 172.26 54.7671 172.729 54.6349C173.196 54.4957 173.685 54.3983 174.201 54.3287C174.718 54.2591 175.248 54.2312 175.785 54.2312C175.82 53.9182 175.848 53.6188 175.869 53.3266C175.89 53.0343 175.904 52.7142 175.904 52.3663L175.869 52.3523ZM171.319 57.4324C171.319 57.6273 171.339 57.8082 171.381 57.9821C171.423 58.1561 171.493 58.3093 171.584 58.4415C171.674 58.5737 171.793 58.678 171.932 58.7546C172.072 58.8311 172.24 58.866 172.442 58.866C172.666 58.866 172.896 58.8173 173.133 58.7129C173.37 58.6085 173.6 58.4693 173.831 58.2813C174.061 58.1005 174.278 57.8777 174.494 57.6273C174.703 57.3698 174.892 57.0984 175.059 56.7921C175.227 56.4929 175.366 56.1728 175.478 55.8457C175.59 55.5117 175.659 55.1707 175.694 54.8228C175.331 54.8297 174.969 54.8576 174.606 54.8923C174.243 54.9272 173.901 54.9898 173.58 55.0663C173.259 55.1429 172.959 55.2473 172.679 55.3795C172.401 55.5048 172.162 55.6648 171.967 55.8597C171.765 56.0475 171.611 56.2702 171.5 56.5346C171.388 56.7921 171.332 57.0913 171.332 57.4324H171.319Z" fill="white"/>
<path d="M181.928 51.4549C181.928 51.2531 181.914 51.0861 181.886 50.9469C181.858 50.8077 181.81 50.6964 181.747 50.6199C181.684 50.5364 181.607 50.4807 181.516 50.4458C181.425 50.4111 181.314 50.3971 181.182 50.3971C181.006 50.3971 180.791 50.425 180.546 50.4737C180.302 50.5224 180.016 50.592 179.701 50.6755L179.59 50.1466C179.939 50.0213 180.281 49.91 180.602 49.8126C180.923 49.7152 181.223 49.6247 181.495 49.5481C181.768 49.4717 182.005 49.4159 182.214 49.3811C182.424 49.3393 182.585 49.3186 182.703 49.3186C182.989 49.3186 183.213 49.402 183.373 49.576C183.534 49.743 183.617 50.0353 183.617 50.4529C183.617 50.5015 183.617 50.6199 183.603 50.7938C183.596 50.9747 183.582 51.2044 183.561 51.4758C183.547 51.7542 183.526 52.0674 183.498 52.4222C183.471 52.7771 183.443 53.1599 183.415 53.5635C183.38 53.9671 183.345 54.3846 183.31 54.8162C183.268 55.2476 183.226 55.679 183.184 56.1035H183.226C183.603 54.837 184.008 53.7653 184.434 52.8954C184.866 52.0186 185.3 51.3088 185.746 50.7659C186.193 50.2232 186.632 49.8265 187.072 49.5899C187.512 49.3464 187.931 49.228 188.336 49.228C188.615 49.228 188.88 49.2768 189.138 49.3811C189.397 49.4855 189.627 49.6525 189.822 49.8753C190.025 50.1048 190.178 50.3971 190.297 50.7521C190.415 51.1069 190.472 51.5385 190.472 52.0465C190.472 52.1925 190.465 52.3944 190.444 52.6379C190.422 52.8815 190.409 53.1668 190.381 53.466C190.353 53.7723 190.324 54.0924 190.297 54.4403C190.263 54.7813 190.235 55.1223 190.213 55.4493C190.185 55.7765 190.165 56.0966 190.15 56.3888C190.137 56.688 190.122 56.9456 190.122 57.1682C190.122 57.551 190.137 57.8642 190.172 58.1077C190.206 58.3513 190.255 58.5391 190.332 58.6784C190.409 58.8175 190.506 58.9149 190.625 58.9636C190.751 59.0124 190.897 59.0402 191.079 59.0402C191.337 59.0402 191.603 59.0054 191.881 58.9358C192.161 58.8663 192.44 58.7619 192.719 58.6366L192.859 59.0193C192.685 59.1585 192.454 59.3046 192.181 59.4578C191.909 59.6039 191.623 59.7431 191.323 59.8613C191.023 59.9797 190.73 60.0841 190.43 60.1607C190.137 60.2371 189.872 60.272 189.641 60.272C189.375 60.272 189.166 60.2024 189.012 60.0563C188.86 59.9101 188.747 59.7222 188.671 59.4717C188.593 59.2281 188.545 58.9358 188.524 58.6088C188.503 58.2817 188.489 57.9268 188.489 57.5441C188.489 57.0778 188.503 56.6046 188.538 56.1104C188.573 55.6233 188.608 55.1501 188.643 54.7118C188.684 54.2664 188.719 53.8627 188.747 53.5009C188.782 53.139 188.797 52.8467 188.797 52.631C188.797 52.0534 188.684 51.6289 188.469 51.3575C188.252 51.0861 187.959 50.9469 187.603 50.9469C187.316 50.9469 187.016 51.0653 186.703 51.3088C186.388 51.5523 186.067 51.8795 185.76 52.304C185.446 52.7285 185.146 53.2225 184.853 53.7932C184.566 54.3708 184.301 54.9901 184.071 55.6581C183.841 56.3263 183.645 57.0221 183.491 57.7528C183.338 58.4835 183.241 59.2142 183.206 59.9379L181.656 60.1328H181.537C181.579 59.6596 181.614 59.1446 181.649 58.5948C181.684 58.0451 181.719 57.4814 181.747 56.9108C181.775 56.3401 181.803 55.7765 181.823 55.2198C181.844 54.663 181.866 54.1411 181.879 53.654C181.9 53.1668 181.907 52.7354 181.914 52.3526C181.921 51.9699 181.928 51.6637 181.928 51.441V51.4549Z" fill="white"/>
<path d="M209.61 40.1117C209.435 41.3643 209.261 42.6448 209.1 43.9531C208.94 45.2614 208.794 46.5696 208.668 47.8709C208.542 49.1723 208.444 50.4528 208.375 51.7123C208.298 52.9719 208.262 54.1828 208.262 55.3379C208.262 55.8947 208.262 56.3749 208.284 56.7715C208.298 57.1682 208.318 57.5092 208.34 57.7806C208.368 58.0589 208.403 58.2747 208.451 58.4417C208.5 58.6017 208.556 58.727 208.626 58.8174C208.696 58.9079 208.779 58.9636 208.877 58.9915C208.968 59.0193 209.079 59.0332 209.213 59.0332C209.45 59.0332 209.708 58.9984 209.98 58.9288C210.252 58.8592 210.531 58.7548 210.81 58.6296L210.95 59.0123C210.775 59.1515 210.545 59.2976 210.28 59.4507C210.008 59.5969 209.728 59.7361 209.428 59.8543C209.128 59.9727 208.842 60.0771 208.556 60.1536C208.27 60.2301 208.025 60.2649 207.816 60.2649C207.662 60.2649 207.53 60.251 207.419 60.2162C207.306 60.1814 207.209 60.1258 207.125 60.0353C207.041 59.9518 206.972 59.8334 206.915 59.6943C206.86 59.5551 206.811 59.3672 206.776 59.1445C206.734 58.8453 206.692 58.5043 206.672 58.1076C206.644 57.7109 206.629 57.2865 206.629 56.8203C206.629 56.3261 206.65 55.8251 206.685 55.3171C206.72 54.8091 206.783 54.301 206.867 53.7931L206.797 53.7792C206.42 54.7812 206.001 55.6859 205.555 56.4931C205.108 57.3004 204.647 57.9894 204.172 58.5599C203.698 59.1306 203.223 59.569 202.741 59.8821C202.26 60.1884 201.8 60.3415 201.359 60.3415C200.92 60.3415 200.529 60.2301 200.208 60.0074C199.887 59.7848 199.622 59.4855 199.419 59.1237C199.217 58.7548 199.063 58.3373 198.966 57.8571C198.868 57.3839 198.818 56.8898 198.818 56.3887C198.818 55.7833 198.889 55.1849 199.022 54.5933C199.154 54.0018 199.342 53.4451 199.594 52.9162C199.845 52.3874 200.145 51.9003 200.494 51.4478C200.843 50.9955 201.241 50.6059 201.674 50.2857C202.106 49.9586 202.582 49.7082 203.084 49.5203C203.594 49.3323 204.124 49.2419 204.682 49.2419C205.073 49.2419 205.464 49.2906 205.848 49.3881C206.231 49.4854 206.622 49.6525 207.006 49.8752C207.034 49.04 207.063 48.1841 207.097 47.3212C207.132 46.4583 207.181 45.6163 207.23 44.7951C207.278 43.974 207.334 43.2015 207.391 42.4777C207.446 41.7471 207.516 41.0999 207.586 40.5293C207.6 40.4109 207.641 40.3065 207.704 40.223C207.767 40.1395 207.851 40.0699 207.949 40.0143C208.047 39.9586 208.158 39.9238 208.284 39.9029C208.409 39.8751 208.535 39.8682 208.661 39.8682C208.954 39.8682 209.268 39.9447 209.596 40.1048L209.61 40.1117ZM206.95 50.5293C206.281 50.2162 205.625 50.0561 204.961 50.0561C204.48 50.0561 204.04 50.1327 203.635 50.2857C203.23 50.4388 202.867 50.6476 202.546 50.919C202.225 51.1904 201.946 51.5036 201.702 51.8654C201.457 52.2273 201.262 52.617 201.101 53.0345C200.94 53.452 200.822 53.8836 200.738 54.3289C200.655 54.7743 200.619 55.2266 200.619 55.665C200.619 55.8251 200.627 56.006 200.64 56.2078C200.655 56.4096 200.682 56.6253 200.725 56.8411C200.766 57.0638 200.822 57.2726 200.892 57.4814C200.962 57.69 201.046 57.878 201.15 58.045C201.255 58.212 201.381 58.3442 201.527 58.4486C201.674 58.5461 201.848 58.6017 202.043 58.6017C202.4 58.6017 202.762 58.4695 203.132 58.2051C203.503 57.9406 203.866 57.5857 204.222 57.1473C204.578 56.7088 204.906 56.2078 205.219 55.6372C205.534 55.0736 205.812 54.4889 206.057 53.8905C206.301 53.292 206.504 52.7005 206.657 52.116C206.811 51.5314 206.909 51.0025 206.944 50.5223L206.95 50.5293Z" fill="white"/>
<path d="M219.209 57.6619C219.209 57.6619 219.278 57.6968 219.32 57.7246C219.368 57.7525 219.411 57.7803 219.453 57.815C219.494 57.8499 219.529 57.8847 219.557 57.9194C219.585 57.9542 219.6 57.9891 219.6 58.0238C219.6 58.0447 219.592 58.0656 219.578 58.0795C219.299 58.4623 219.006 58.7963 218.685 59.0816C218.364 59.3669 218.036 59.6035 217.694 59.7914C217.352 59.9793 217.003 60.1185 216.647 60.2159C216.29 60.3063 215.942 60.3551 215.593 60.3551C215 60.3551 214.455 60.2368 213.96 59.9933C213.464 59.7496 213.038 59.4226 212.682 59.005C212.326 58.5875 212.047 58.0935 211.844 57.5297C211.642 56.9661 211.544 56.3606 211.544 55.7135C211.544 55.1846 211.6 54.6557 211.719 54.1338C211.838 53.6049 212.005 53.1038 212.222 52.6237C212.445 52.1435 212.71 51.6981 213.024 51.2875C213.338 50.877 213.701 50.5221 214.099 50.2159C214.504 49.9096 214.944 49.673 215.425 49.506C215.907 49.3321 216.423 49.2485 216.975 49.2485C217.337 49.2485 217.687 49.2973 218.022 49.3947C218.35 49.4922 218.643 49.6383 218.894 49.8192C219.146 50.0002 219.341 50.2297 219.494 50.5012C219.641 50.7726 219.718 51.0788 219.718 51.4268C219.718 51.9278 219.55 52.3662 219.222 52.7419C218.894 53.1178 218.441 53.4309 217.861 53.6953C217.282 53.9597 216.605 54.1685 215.816 54.3286C215.035 54.4886 214.19 54.607 213.275 54.6835V54.8088C213.275 55.4421 213.352 56.0127 213.512 56.5416C213.673 57.0635 213.897 57.5089 214.176 57.8847C214.455 58.2535 214.79 58.5458 215.167 58.7546C215.543 58.9633 215.956 59.0677 216.395 59.0677C216.835 59.0677 217.296 58.9563 217.763 58.7406C218.232 58.5249 218.706 58.163 219.181 57.6759L219.209 57.6619ZM217.819 51.726C217.819 51.4963 217.784 51.2875 217.708 51.0927C217.631 50.8979 217.526 50.7239 217.387 50.5778C217.254 50.4316 217.087 50.3203 216.898 50.2368C216.709 50.1533 216.507 50.1115 216.29 50.1115C215.969 50.1115 215.676 50.1671 215.419 50.2785C215.153 50.3899 214.922 50.5429 214.713 50.7378C214.504 50.9326 214.322 51.1553 214.162 51.4197C214.001 51.6772 213.869 51.9556 213.757 52.2409C213.645 52.5332 213.555 52.8325 213.484 53.1317C213.415 53.4379 213.366 53.7371 213.338 54.0294C214.036 53.9806 214.672 53.8972 215.223 53.7719C215.782 53.6536 216.249 53.4936 216.633 53.3057C217.016 53.1178 217.309 52.8881 217.513 52.6237C217.715 52.3592 217.819 52.06 217.819 51.719V51.726Z" fill="white"/>
<path d="M222.168 60.1397H222.049C222.092 59.6665 222.127 59.1515 222.161 58.6017C222.196 58.052 222.231 57.4883 222.259 56.9177C222.287 56.347 222.314 55.7834 222.335 55.2267C222.357 54.67 222.377 54.148 222.392 53.6609C222.412 53.1737 222.42 52.7423 222.426 52.3595C222.433 51.9768 222.44 51.6706 222.44 51.4479C222.44 51.267 222.433 51.1069 222.42 50.9747C222.405 50.8425 222.37 50.7312 222.322 50.6406C222.273 50.5502 222.196 50.4876 222.098 50.4458C222.001 50.404 221.868 50.3832 221.701 50.3832C221.617 50.3832 221.533 50.3832 221.442 50.3971C221.351 50.404 221.254 50.4249 221.149 50.4389C221.037 50.4598 220.919 50.4876 220.779 50.5155C220.639 50.5502 220.485 50.585 220.311 50.6268L220.2 50.0979C221.023 49.8056 221.686 49.5968 222.196 49.4715C222.705 49.3533 223.048 49.2906 223.229 49.2906C223.557 49.2906 223.788 49.3881 223.927 49.5759C224.067 49.7638 224.136 50.0492 224.136 50.4249C224.136 50.4598 224.136 50.5572 224.123 50.7312C224.116 50.8982 224.101 51.1139 224.081 51.3853C224.067 51.6567 224.045 51.9628 224.018 52.3178C223.99 52.6727 223.962 53.0555 223.934 53.4591C223.899 53.8627 223.864 54.2872 223.83 54.7326C223.788 55.171 223.745 55.6164 223.704 56.0548H223.78C224.018 55.0945 224.283 54.1967 224.583 53.3616C224.883 52.5266 225.218 51.8028 225.589 51.1835C225.958 50.5711 226.37 50.0839 226.817 49.7291C227.264 49.3742 227.752 49.2002 228.289 49.2002C228.478 49.2002 228.652 49.228 228.813 49.2906C228.973 49.3533 229.12 49.4299 229.238 49.5412C229.357 49.6456 229.448 49.7709 229.518 49.9169C229.588 50.0631 229.623 50.2232 229.623 50.3971C229.623 50.6198 229.574 50.8286 229.477 51.0373C229.379 51.2391 229.225 51.4201 229.023 51.5802H228.967C228.758 51.4061 228.562 51.2809 228.38 51.2044C228.191 51.1278 227.996 51.0931 227.794 51.0931C227.57 51.0931 227.355 51.1348 227.152 51.2183C226.942 51.3017 226.754 51.4201 226.579 51.5802C226.3 51.8377 226.035 52.1716 225.791 52.5961C225.546 53.0206 225.33 53.4869 225.128 53.9949C224.925 54.5099 224.744 55.0457 224.583 55.6094C224.423 56.1731 224.283 56.7228 224.171 57.2587C224.053 57.7945 223.962 58.2956 223.892 58.7688C223.823 59.242 223.767 59.6317 223.739 59.9518L222.189 60.1467L222.168 60.1397Z" fill="white"/>
<path d="M262.896 63.285C262.407 63.96 261.912 64.5307 261.416 64.9969C260.92 65.4631 260.418 65.8459 259.908 66.1382C259.406 66.4305 258.896 66.6462 258.387 66.7784C257.877 66.9106 257.368 66.9802 256.858 66.9802C256.278 66.9802 255.699 66.9106 255.112 66.7645C254.527 66.6184 253.948 66.4305 253.361 66.1939C252.782 65.9573 252.202 65.6789 251.623 65.3588C251.044 65.0456 250.471 64.7116 249.906 64.3637C249.341 64.0157 248.775 63.6608 248.216 63.3059C247.658 62.951 247.106 62.61 246.569 62.2829C246.025 61.9628 245.494 61.6705 244.971 61.4061C244.447 61.1417 243.938 60.9259 243.435 60.7658C243.156 60.6754 242.891 60.6057 242.64 60.5501C242.388 60.4944 242.137 60.4457 241.9 60.404C241.663 60.3622 241.425 60.3274 241.202 60.2927C240.972 60.2578 240.755 60.2161 240.538 60.1743C239.75 60.0143 239.038 59.7289 238.396 59.3184C237.754 58.9078 237.202 58.372 236.741 57.7039C236.281 57.0358 235.925 56.2495 235.673 55.3378C235.423 54.4262 235.297 53.3894 235.297 52.2272C235.297 51.3782 235.366 50.55 235.506 49.7428C235.646 48.9356 235.855 48.1701 236.127 47.4533C236.407 46.7365 236.748 46.0754 237.16 45.4769C237.573 44.8785 238.047 44.3635 238.598 43.9321C239.15 43.5006 239.764 43.1596 240.441 42.9161C241.125 42.6724 241.872 42.5542 242.688 42.5542C243.679 42.5542 244.595 42.7282 245.425 43.0691C246.255 43.4171 246.967 43.9251 247.568 44.6071C248.168 45.289 248.635 46.138 248.97 47.1472C249.306 48.1631 249.473 49.3392 249.473 50.6753C249.473 51.4268 249.417 52.1645 249.313 52.8883C249.201 53.6051 249.041 54.294 248.824 54.9411C248.607 55.5884 248.335 56.1938 248.007 56.7575C247.679 57.3211 247.295 57.8222 246.863 58.2676C246.43 58.713 245.941 59.0887 245.403 59.395C244.86 59.7011 244.266 59.9308 243.624 60.0699V60.1256C244.176 60.2369 244.727 60.3971 245.299 60.6057C245.864 60.8145 246.444 61.0442 247.023 61.3086C247.603 61.5731 248.189 61.8515 248.775 62.1438C249.361 62.436 249.955 62.7352 250.548 63.0275C251.141 63.3198 251.741 63.6051 252.334 63.8696C252.929 64.1409 253.522 64.3776 254.115 64.5794C254.708 64.7811 255.294 64.9482 255.881 65.0734C256.467 65.1987 257.047 65.2613 257.625 65.2613C258.059 65.2613 258.491 65.2196 258.91 65.1361C259.336 65.0526 259.747 64.9273 260.16 64.7464C260.572 64.5654 260.976 64.3288 261.374 64.0435C261.772 63.7512 262.156 63.4033 262.533 62.9857L262.91 63.285H262.896ZM242.395 59.395C242.968 59.395 243.491 59.3044 243.959 59.1165C244.426 58.9287 244.845 58.6642 245.216 58.3232C245.585 57.9822 245.907 57.5717 246.172 57.0915C246.444 56.6113 246.667 56.0685 246.841 55.4771C247.017 54.8855 247.149 54.2453 247.232 53.5563C247.316 52.8743 247.365 52.1506 247.365 51.399C247.365 50.056 247.232 48.8939 246.967 47.9056C246.702 46.9175 246.346 46.1032 245.892 45.4491C245.438 44.8019 244.908 44.3218 244.301 44.0017C243.694 43.6816 243.051 43.5285 242.367 43.5285C241.795 43.5285 241.272 43.6189 240.803 43.8068C240.336 43.9947 239.917 44.2591 239.547 44.6001C239.178 44.9411 238.857 45.3517 238.585 45.8319C238.312 46.312 238.088 46.8549 237.914 47.4464C237.74 48.0378 237.607 48.678 237.523 49.3671C237.439 50.056 237.391 50.7728 237.391 51.5243C237.391 52.8674 237.523 54.0296 237.788 55.0177C238.053 56.0059 238.41 56.8201 238.863 57.4742C239.317 58.1215 239.847 58.6016 240.455 58.9217C241.062 59.2418 241.704 59.395 242.388 59.395H242.395Z" fill="white"/>
<path d="M254.388 50.6962C254.388 51.0302 254.374 51.3921 254.353 51.7748C254.333 52.1576 254.305 52.5473 254.27 52.9369C254.235 53.3336 254.2 53.7233 254.165 54.1131C254.13 54.5027 254.095 54.8786 254.06 55.2265C254.025 55.5744 254.005 55.8945 253.977 56.1937C253.955 56.486 253.942 56.7296 253.942 56.9314C253.942 57.5159 254.053 57.9475 254.277 58.2188C254.5 58.4902 254.793 58.6224 255.163 58.6224C255.582 58.6224 256.014 58.3998 256.455 57.9475C256.894 57.4951 257.313 56.841 257.717 55.9711C258.116 55.1012 258.458 54.1269 258.744 53.0483C259.023 51.9697 259.205 50.8005 259.281 49.5479L260.851 49.3531H260.97C260.929 49.8263 260.886 50.3274 260.851 50.8492C260.817 51.3712 260.782 51.9001 260.754 52.422C260.726 52.944 260.705 53.4589 260.684 53.9599C260.671 54.461 260.664 54.9273 260.664 55.3518C260.664 56.152 260.712 56.8131 260.803 57.3211C260.894 57.8291 261.019 58.2327 261.166 58.5251C261.312 58.8173 261.487 59.0191 261.676 59.1304C261.864 59.2418 262.059 59.2975 262.248 59.2975C262.359 59.2975 262.471 59.2835 262.583 59.2557C262.695 59.2279 262.799 59.1931 262.897 59.1513C262.995 59.1096 263.086 59.0609 263.169 59.0122C263.253 58.9634 263.323 58.9216 263.379 58.8799L263.623 59.2209C263.477 59.367 263.316 59.5063 263.134 59.6385C262.953 59.7707 262.758 59.882 262.554 59.9794C262.352 60.0769 262.143 60.1534 261.92 60.2021C261.696 60.2578 261.473 60.2856 261.242 60.2856C260.957 60.2856 260.677 60.23 260.412 60.1187C260.14 60.0073 259.902 59.8124 259.7 59.548C259.491 59.2835 259.324 58.9287 259.198 58.4833C259.072 58.0379 259.009 57.4881 259.009 56.827C259.009 56.6182 259.009 56.4025 259.023 56.1868C259.03 55.9711 259.051 55.7414 259.065 55.4979C259.086 55.2543 259.114 54.9968 259.142 54.7185C259.177 54.4401 259.211 54.134 259.253 53.7999L259.17 53.7859C258.835 55.0246 258.471 56.0615 258.073 56.8966C257.683 57.7316 257.278 58.4067 256.866 58.9217C256.455 59.4366 256.042 59.7986 255.623 60.0212C255.212 60.2438 254.814 60.3482 254.437 60.3482C254.157 60.3482 253.886 60.2996 253.627 60.2021C253.369 60.1047 253.139 59.9516 252.936 59.7289C252.734 59.5132 252.574 59.2209 252.448 58.859C252.329 58.4971 252.266 58.0588 252.266 57.5299C252.266 57.182 252.287 56.7853 252.322 56.3259C252.364 55.8667 252.406 55.3865 252.454 54.8715C252.504 54.3566 252.545 53.8277 252.587 53.2779C252.63 52.7282 252.643 52.1854 252.643 51.6496C252.643 51.4338 252.636 51.2459 252.622 51.0858C252.608 50.9258 252.574 50.8005 252.524 50.6962C252.476 50.5918 252.406 50.5153 252.308 50.4665C252.211 50.4178 252.078 50.39 251.911 50.39C251.742 50.39 251.527 50.4178 251.255 50.4665C250.982 50.5153 250.703 50.5848 250.402 50.6683L250.291 50.1394C250.695 49.9933 251.073 49.8751 251.422 49.7636C251.77 49.6592 252.085 49.5688 252.357 49.4992C252.63 49.4297 252.867 49.3809 253.055 49.3462C253.243 49.3113 253.383 49.2974 253.473 49.2974C253.649 49.2974 253.795 49.3322 253.914 49.3948C254.025 49.4575 254.116 49.5549 254.186 49.6732C254.255 49.7985 254.305 49.9446 254.333 50.1186C254.361 50.2925 254.374 50.4874 254.374 50.7101L254.388 50.6962Z" fill="white"/>
<path d="M271.477 57.6619C271.477 57.6619 271.546 57.6968 271.588 57.7246C271.637 57.7525 271.679 57.7803 271.721 57.815C271.762 57.8499 271.797 57.8847 271.825 57.9194C271.853 57.9542 271.868 57.9891 271.868 58.0238C271.868 58.0447 271.86 58.0656 271.846 58.0795C271.567 58.4623 271.274 58.7963 270.953 59.0816C270.632 59.3669 270.304 59.6035 269.962 59.7914C269.62 59.9793 269.271 60.1185 268.915 60.2159C268.558 60.3063 268.21 60.3551 267.861 60.3551C267.268 60.3551 266.723 60.2368 266.227 59.9933C265.732 59.7496 265.306 59.4226 264.95 59.005C264.594 58.5875 264.315 58.0935 264.112 57.5297C263.91 56.9661 263.812 56.3606 263.812 55.7135C263.812 55.1846 263.868 54.6557 263.986 54.1338C264.106 53.6049 264.273 53.1038 264.49 52.6237C264.713 52.1435 264.978 51.6981 265.292 51.2875C265.606 50.877 265.969 50.5221 266.367 50.2159C266.772 49.9096 267.212 49.673 267.693 49.506C268.175 49.3321 268.691 49.2485 269.243 49.2485C269.605 49.2485 269.955 49.2973 270.29 49.3947C270.618 49.4922 270.911 49.6383 271.162 49.8192C271.414 50.0002 271.609 50.2297 271.762 50.5012C271.909 50.7726 271.986 51.0788 271.986 51.4268C271.986 51.9278 271.818 52.3662 271.49 52.7419C271.162 53.1178 270.709 53.4309 270.129 53.6953C269.55 53.9597 268.873 54.1685 268.084 54.3286C267.303 54.4886 266.458 54.607 265.543 54.6835V54.8088C265.543 55.4421 265.62 56.0127 265.78 56.5416C265.941 57.0635 266.165 57.5089 266.444 57.8847C266.723 58.2535 267.058 58.5458 267.435 58.7546C267.811 58.9633 268.224 59.0677 268.664 59.0677C269.103 59.0677 269.564 58.9563 270.031 58.7406C270.5 58.5249 270.974 58.163 271.449 57.6759L271.477 57.6619ZM270.081 51.726C270.081 51.4963 270.046 51.2875 269.968 51.0927C269.892 50.8979 269.787 50.7239 269.648 50.5778C269.515 50.4316 269.347 50.3203 269.159 50.2368C268.971 50.1533 268.768 50.1115 268.552 50.1115C268.23 50.1115 267.937 50.1671 267.679 50.2785C267.421 50.3899 267.183 50.5429 266.974 50.7378C266.765 50.9326 266.584 51.1553 266.423 51.4197C266.262 51.6772 266.13 51.9556 266.018 52.2409C265.906 52.5332 265.815 52.8325 265.746 53.1317C265.676 53.4379 265.628 53.7371 265.6 54.0294C266.297 53.9806 266.933 53.8972 267.483 53.7719C268.043 53.6536 268.51 53.4936 268.894 53.3057C269.277 53.1178 269.571 52.8881 269.774 52.6237C269.976 52.3592 270.081 52.06 270.081 51.719V51.726Z" fill="white"/>
<path d="M276.931 40.1117C276.834 40.9467 276.736 41.8097 276.638 42.6865C276.541 43.5633 276.451 44.4541 276.366 45.3518C276.283 46.2495 276.199 47.1542 276.123 48.0588C276.045 48.9636 275.982 49.8612 275.927 50.7381C275.871 51.6149 275.829 52.4778 275.801 53.3268C275.773 54.1758 275.759 54.99 275.759 55.7625C275.759 56.2496 275.76 56.6671 275.78 57.0151C275.795 57.363 275.815 57.6622 275.836 57.8988C275.864 58.1425 275.899 58.3373 275.947 58.4834C275.997 58.6296 276.052 58.7478 276.123 58.8244C276.192 58.9009 276.275 58.9566 276.366 58.9844C276.457 59.0123 276.569 59.0262 276.701 59.0262C276.939 59.0262 277.198 58.9915 277.469 58.9218C277.741 58.8522 278.021 58.7478 278.3 58.6226L278.44 59.0053C278.265 59.1445 278.035 59.2907 277.769 59.4438C277.498 59.5899 277.218 59.7291 276.918 59.8474C276.625 59.9727 276.332 60.07 276.045 60.1466C275.76 60.2231 275.515 60.2579 275.306 60.2579C275.04 60.2579 274.824 60.1884 274.67 60.0562C274.516 59.917 274.398 59.7012 274.314 59.3951C274.231 59.0888 274.181 58.6922 274.161 58.2051C274.14 57.7109 274.125 57.1195 274.125 56.4096C274.125 56.1521 274.125 55.7903 274.147 55.3101C274.161 54.837 274.182 54.2802 274.21 53.6539C274.238 53.0206 274.266 52.3317 274.301 51.5871C274.335 50.8355 274.37 50.063 274.412 49.2628C274.454 48.4625 274.496 47.6552 274.538 46.841C274.579 46.0268 274.629 45.2405 274.67 44.475C274.712 43.7164 274.754 42.9927 274.796 42.3177C274.838 41.6427 274.872 41.0442 274.907 40.5293C274.907 40.4109 274.95 40.3065 275.013 40.223C275.076 40.1395 275.159 40.0699 275.263 40.0143C275.361 39.9655 275.48 39.9238 275.606 39.9029C275.732 39.8751 275.856 39.8682 275.99 39.8682C276.282 39.8682 276.597 39.9447 276.925 40.1048L276.931 40.1117Z" fill="white"/>
<path d="M282.818 40.1117C282.72 40.9467 282.622 41.8097 282.524 42.6865C282.427 43.5633 282.336 44.4541 282.251 45.3518C282.168 46.2495 282.084 47.1542 282.008 48.0588C281.931 48.9636 281.868 49.8612 281.812 50.7381C281.756 51.6149 281.714 52.4778 281.686 53.3268C281.658 54.1758 281.645 54.99 281.645 55.7625C281.645 56.2496 281.645 56.6671 281.665 57.0151C281.68 57.363 281.7 57.6622 281.721 57.8988C281.749 58.1425 281.784 58.3373 281.833 58.4834C281.882 58.6296 281.938 58.7478 282.008 58.8244C282.077 58.9009 282.161 58.9566 282.251 58.9844C282.342 59.0123 282.455 59.0262 282.587 59.0262C282.824 59.0262 283.083 58.9915 283.355 58.9218C283.626 58.8522 283.906 58.7478 284.186 58.6226L284.325 59.0053C284.15 59.1445 283.92 59.2907 283.655 59.4438C283.383 59.5899 283.103 59.7291 282.803 59.8474C282.51 59.9727 282.217 60.07 281.931 60.1466C281.645 60.2231 281.4 60.2579 281.191 60.2579C280.926 60.2579 280.709 60.1884 280.555 60.0562C280.402 59.917 280.283 59.7012 280.2 59.3951C280.116 59.0888 280.067 58.6922 280.046 58.2051C280.025 57.7109 280.011 57.1195 280.011 56.4096C280.011 56.1521 280.011 55.7903 280.032 55.3101C280.046 54.837 280.067 54.2802 280.095 53.6539C280.123 53.0206 280.151 52.3317 280.186 51.5871C280.22 50.8355 280.255 50.063 280.298 49.2628C280.339 48.4625 280.381 47.6552 280.423 46.841C280.465 46.0268 280.514 45.2405 280.555 44.475C280.598 43.7164 280.639 42.9927 280.681 42.3177C280.724 41.6427 280.758 41.0442 280.793 40.5293C280.793 40.4109 280.835 40.3065 280.898 40.223C280.961 40.1395 281.044 40.0699 281.149 40.0143C281.247 39.9655 281.365 39.9238 281.491 39.9029C281.617 39.8751 281.743 39.8682 281.875 39.8682C282.168 39.8682 282.482 39.9447 282.81 40.1048L282.818 40.1117Z" fill="white"/>
<path d="M292.582 57.6619C292.582 57.6619 292.651 57.6968 292.693 57.7246C292.735 57.7525 292.784 57.7803 292.826 57.815C292.867 57.8499 292.902 57.8847 292.93 57.9194C292.958 57.9542 292.973 57.9891 292.973 58.0238C292.973 58.0447 292.965 58.0656 292.951 58.0795C292.672 58.4623 292.379 58.7963 292.058 59.0816C291.737 59.3669 291.409 59.6035 291.066 59.7914C290.725 59.9793 290.376 60.1185 290.02 60.2159C289.663 60.3063 289.315 60.3551 288.966 60.3551C288.373 60.3551 287.828 60.2368 287.332 59.9933C286.837 59.7496 286.411 59.4226 286.055 59.005C285.699 58.5875 285.419 58.0935 285.217 57.5297C285.015 56.9661 284.917 56.3606 284.917 55.7135C284.917 55.1846 284.973 54.6557 285.091 54.1338C285.211 53.6049 285.378 53.1038 285.595 52.6237C285.818 52.1435 286.083 51.6981 286.397 51.2875C286.711 50.877 287.074 50.5221 287.472 50.2159C287.877 49.9096 288.317 49.673 288.798 49.506C289.28 49.3321 289.796 49.2485 290.348 49.2485C290.71 49.2485 291.06 49.2973 291.395 49.3947C291.723 49.4922 292.016 49.6383 292.267 49.8192C292.519 50.0071 292.714 50.2297 292.867 50.5012C293.014 50.7726 293.091 51.0788 293.091 51.4268C293.091 51.9278 292.923 52.3662 292.595 52.7419C292.267 53.1178 291.813 53.4309 291.234 53.6953C290.655 53.9597 289.978 54.1685 289.189 54.3286C288.407 54.4886 287.563 54.607 286.648 54.6835V54.8088C286.648 55.4421 286.725 56.0127 286.885 56.5416C287.046 57.0635 287.27 57.5089 287.549 57.8847C287.828 58.2535 288.163 58.5458 288.54 58.7546C288.916 58.9633 289.329 59.0677 289.769 59.0677C290.208 59.0677 290.669 58.9563 291.136 58.7406C291.605 58.5249 292.079 58.163 292.554 57.6759L292.582 57.6619ZM291.192 51.726C291.192 51.4963 291.157 51.2875 291.081 51.0927C291.004 50.8979 290.899 50.7239 290.76 50.5778C290.627 50.4316 290.46 50.3203 290.271 50.2368C290.082 50.1533 289.88 50.1115 289.663 50.1115C289.342 50.1115 289.049 50.1671 288.792 50.2785C288.533 50.3899 288.295 50.5429 288.086 50.7378C287.877 50.9326 287.695 51.1553 287.535 51.4197C287.374 51.6772 287.242 51.9556 287.13 52.2409C287.018 52.5332 286.928 52.8325 286.857 53.1317C286.788 53.4379 286.739 53.7371 286.711 54.0294C287.409 53.9806 288.045 53.8972 288.596 53.7719C289.154 53.6536 289.622 53.4936 290.006 53.3057C290.39 53.1178 290.682 52.8881 290.886 52.6237C291.088 52.3592 291.192 52.06 291.192 51.719V51.726Z" fill="white"/>
</g>
</g>
<defs>
<clipPath id="clip0_141_306">
<rect width="294" height="123" fill="white"/>
</clipPath>
</defs>
</svg>
