<svg width="159" height="117" viewBox="0 0 159 117" fill="none" xmlns="http://www.w3.org/2000/svg">
<path d="M38.2253 116.206L37.7455 115.205L37.3074 114.155L36.8761 113.619L36.596 113.296L36.403 113.132L36.1455 112.913L35.6307 112.475L33.4357 110.1L33.2844 109.887L33.1523 109.521L33.1038 109.056L33.1997 108.291L33.386 107.942L33.4888 107.691L34.1222 107.467L34.1188 107.211L34.1154 106.954L33.7067 106.521L33.4267 106.199L33.1015 105.668L32.992 105.406L32.9468 105.198L33.3612 104.45L33.5599 103.434L33.8297 102.986L33.8263 102.729L33.5316 99.6854L33.605 98.8167L33.4955 98.5543L33.1963 98.3844L33.0032 98.2202L32.6362 97.7387L32.3788 97.5198L32.1631 97.2517L31.6641 96.404L31.3841 96.0811L31.1267 95.8622L30.657 95.632L29.8655 95.1281L29.6724 94.9638L29.5211 94.7505L29.4534 94.4389L29.704 94.1442L30.2121 94.0685L30.36 94.025L30.5271 93.8286L31.5839 91.9341L31.7092 91.7867L31.8989 91.6941L32.1112 91.7054L32.3878 91.7714L32.5583 91.8318L32.7931 91.9468L33.028 92.062L33.5846 92.4508L33.8195 92.5659L34.0543 92.681L34.2022 92.6375L34.305 92.3863L34.1729 92.02L33.8025 91.2818L33.7766 90.9211L33.667 90.6586L33.6445 90.5548L33.3678 90.4888L33.0528 90.7287L32.9467 90.7231L33.0043 90.2642L32.9591 90.0565L32.6791 89.7336L32.1224 89.3449L29.6227 87.9804L28.2293 86.88L28.2869 86.421L28.1966 86.0056L28.0453 85.7923L27.894 85.5789L27.7009 85.4147L27.4435 85.1958L27.1861 84.9768L27.0348 84.7634L26.7999 84.6483L26.5651 84.5332L25.5421 84.171L25.2429 84.0012L24.9855 83.7822L24.8342 83.5689L24.5767 83.3499L24.2358 83.2292L23.7469 83.1519L22.7273 83.0465L22.0713 83.1658L21.1647 83.5796L20.8079 83.8687L20.599 84.1143L20.31 84.7149L19.8662 84.8454L19.0172 84.8004L17.1034 84.4422L16.2092 84.1895L15.508 84.101L15.2314 84.035L14.0097 84.6888L13.7173 85.0327L13.4023 85.2726L13.2544 85.3161L13.1257 85.2066L12.9326 85.0424L11.423 83.1658L10.8212 82.5693L10.0263 81.8086L9.04171 81.1404L8.44331 80.8007L7.65183 80.2968L7.41696 80.1817L6.2653 79.71L6.03047 79.5949L5.83739 79.4306L5.64431 79.2664L5.45124 79.1022L4.89119 78.4566L4.7399 78.2432L4.08954 77.1822L3.98002 76.9197L3.95406 76.559L4.19455 75.4938L4.20017 74.3136L3.51593 70.6842L3.49559 69.1433L3.57915 69.0451L3.72703 69.0016L3.91674 68.909L4.48579 68.6312L4.6145 68.7407L4.67886 68.7954L4.83016 69.0087L4.95888 69.1182L5.0876 69.2277L5.21631 69.3372L5.42858 69.3484L5.59906 69.4088L5.64083 69.3597L5.68262 69.3106L5.80794 69.1632L6.45038 68.0167L6.42442 67.656L6.35667 67.3445L6.37586 67.1915L6.35328 67.0876L6.39504 67.0385L6.37247 66.9347L6.26633 66.9291L4.47562 67.8607L4.36948 67.8551L4.15722 67.8438L3.8614 67.9308L3.45605 67.7553L3.0733 67.6837L1.05561 65.8829L0.775612 65.56L1.17417 65.2219L1.27692 64.9706L1.20238 64.1454L0.641218 61.8059L0.885093 60.9975L1.2351 60.1948L1.51284 57.1298L4.45856 52.1017L4.83794 51.9165L5.49732 52.0541L6.86465 52.7939L7.65274 53.041L9.1894 52.1472L9.74267 52.2792L11.4193 53.9593L12.2978 54.6218L13.0373 54.4043L14.0433 53.4824L14.1653 53.0782L13.8096 50.2363L14.2759 50.2097L15.7042 50.7474L16.1287 50.7699L17.4238 49.2473L17.6812 49.4663L21.1678 50.0618L21.6115 49.9313L21.9457 49.5384L21.1509 48.7776L20.2205 47.3937L18.8622 45.7305L17.4497 44.7831L17.0794 44.0448L16.9856 43.3726L17.1719 43.0231L16.744 42.7438L15.7595 42.0757L15.3315 41.7963L14.767 39.1999L14.1878 38.7072L13.9789 38.9528L13.464 38.5149L14.7308 38.0688L15.0233 37.7249L14.9002 36.4352L13.3194 33.9903L13.2867 33.1159L13.4086 32.7117L13.2314 32.1377L12.8836 31.5033L12.4297 30.8633L12.0436 30.5349L11.5773 30.5615L11.1267 30.1783L10.8241 29.7516L10.692 29.3853L10.5599 29.019L9.18808 26.3285L9.11918 24.323L10.0733 22.6797L13.2877 20.335L18.1754 9.76363L18.1867 7.40305L20.6289 9.2264L22.7335 11.1858L24.706 12.779L26.7034 13.0389L25.4456 12.5615L23.1547 10.9515L22.2571 10.442L21.6485 9.33181L21.7535 7.64348L20.91 6.4182L20.5115 6.75638L20.2416 7.20402L20.2066 7.7668L20.1716 8.32957L19.7144 7.43272L18.5931 4.44752L18.3831 2.99917L17.2043 0.472868L17.2359 -0.346725L17.4189 -0.952987L17.7858 -5.29653L17.4753 -7.93078L17.0981 -9.18269L14.902 -13.2515L12.6213 -18.916L12.0578 -19.8184L9.90014 -24.1932L8.23585 -26.5399L7.96826 -27.5293L8.08003 -28.704L8.59489 -28.266L8.38601 -28.0205L10.6216 -27.3887L12.7951 -28.2487L19.688 -36.3526L21.6944 -37.0161L21.8254 -38.3437L23.0245 -39.1015L24.3014 -38.7771L24.6436 -36.9624L24.1073 -35.8103L20.3982 -32.3625L18.3309 -31.4969L17.3441 -30.7279L17.2865 -30.269L17.6603 -29.274L17.7506 -28.8585L17.124 -28.1218L16.0728 -27.4076L16.0378 -26.8449L16.9648 -25.7178L16.1123 -26.0196L16.1383 -25.659L16.2094 -25.0905L16.1293 -24.7355L16.8564 -24.2863L17.3035 -24.1599L17.5993 -24.2469L17.9143 -24.4869L17.8308 -24.3886L17.7473 -24.2904L17.8342 -24.1318L18.156 -23.8581L17.1206 -23.5537L16.5166 -22.7131L16.5527 -21.582L17.2031 -20.5209L15.7364 -20.7526L14.6592 -20.3991L13.4443 -19.2316L13.2648 -18.3685L13.8125 -17.0563L14.8264 -15.7706L16.2806 -14.8722L15.6698 -14.5453L15.4384 -14.4036L14.9077 -14.4318L15.278 -13.6935L16.4105 -13.0688L17.1862 -12.1551L17.5181 -11.1109L17.2099 -10.3573L18.5129 -9.67232L19.6002 -9.25535L20.3499 -8.7023L20.6593 -7.76197L23.412 -8.12934L24.4857 -8.73969L24.4688 -10.0238L24.0736 -9.42883L23.3758 -9.26049L21.9125 -9.23541L21.2204 -10.2474L20.8049 -11.1933L20.3984 -13.0627L20.4142 -13.4725L20.5553 -14.0297L20.552 -14.2865L20.2493 -14.7132L19.2614 -15.6382L18.9814 -15.961L18.8165 -17.2016L19.2997 -20.769L18.4315 -20.6611L18.2 -20.5194L17.6208 -21.0121L17.8421 -21.9242L18.1153 -22.1151L18.6234 -22.1908L18.1086 -22.6287L19.4657 -22.6594L19.9568 -24.0193L20.212 -27.1882L19.8066 -27.3636L19.1439 -27.7581L18.8447 -27.9279L18.7927 -28.6493L18.9339 -29.2065L19.1811 -29.758L19.6215 -30.1453L20.2651 -29.5978L19.9342 -28.9481L20.2854 -28.0569L21.0836 -27.0393L21.9655 -26.12L21.3117 -27.4378L20.9222 -28.0231L20.4039 -28.7179L21.4687 -28.4048L22.469 -28.1464L23.0607 -28.3204L22.7513 -29.2607L23.6421 -29.2648L23.9763 -29.6577L23.8826 -30.33L23.554 -31.1173L24.2168 -30.7229L24.9632 -30.4267L25.6451 -30.1852L27.2179 -29.9478L27.4945 -29.8818L27.4911 -30.1386L27.6549 -30.5919L28.3041 -31.2248L28.5096 -31.7272L28.3933 -32.5033L28.0004 -33.3454L27.0474 -34.8332L26.4614 -35.8395L26.0967 -37.758L26.0854 -40.2224L26.5889 -42.2489L27.6627 -42.8592L27.9303 -41.8698L28.8313 -41.1034L30.0699 -40.4731L31.2825 -40.2035L33.6073 -40.8502L34.4981 -40.8543L35.5222 -38.7982L36.8704 -37.9054L39.9358 -37.0756L40.9204 -36.4075L41.757 -35.6959L42.5485 -35.1919L43.1402 -35.3659L44.5188 -36.9867L45.098 -36.494L44.8055 -36.1502L44.7897 -35.7404L44.7773 -35.0738L45.6512 -36.362L48.5902 -37.0788L50.0851 -37.9235L51.5224 -38.3092L55.6786 -36.8056L57.6725 -36.8026L57.6861 -35.7753L57.9311 -34.8897L58.6831 -35.7737L58.91 -37.8662L59.8167 -38.2801L60.5732 -37.2134L60.7922 -36.6885L60.9051 -36.1692L61.5611 -36.2884L61.5769 -36.6982L61.5284 -37.1628L61.9495 -37.3971L62.5027 -37.2651L64.7869 -36.1688L66.3631 -35.6746L67.7462 -35.3446L68.9103 -35.5395L69.6205 -36.3745L69.1056 -36.8124L68.4688 -36.8462L67.2336 -37.2196L66.5968 -37.2534L66.0819 -37.6913L68.6833 -43.097L68.917 -44.6758L68.8312 -47.9654L69.2162 -49.3309L69.8338 -49.1442L70.072 -48.7722L70.1623 -48.3568L69.9569 -47.8544L70.4717 -47.4165L72.1405 -47.944L77.6753 -48.0612L78.2545 -47.5685L78.9952 -46.092L80.2891 -44.4835L81.329 -42.8372L81.2658 -41.198L82.0923 -41.2568L84.7072 -40.8102L85.8781 -40.4915L86.2383 -40.5238L87.6948 -41.0625L88.0967 -41.1438L88.8013 -40.7985L89.464 -40.4041L89.8694 -40.2286L90.2329 -40.004L90.513 -39.6812L90.8347 -39.4075L91.0888 -39.4453L91.4422 -39.9912L91.6319 -40.0838L92.0564 -40.0613L92.3522 -40.1483L92.6898 -40.2844L92.9213 -40.4261L93.6191 -40.5944L94.4331 -39.9866L95.0609 -39.0294L95.499 -37.9796L96.094 -33.0718L96.7896 -31.803L98.0474 -31.3257L99.0827 -31.6301L99.8189 -32.1044L100.391 -32.1253L101.437 -31.6593L102.926 -31.3237L104.029 -31.3165L104.299 -31.7642L109.451 -31.953L110.775 -32.858L112.242 -32.6263L112.561 -32.6094L113.142 -33.5539L113.521 -33.739L114.981 -34.021L115.615 -34.244L118.295 -36.8737L118.786 -38.2336L118.068 -39.6062L118.02 -40.0707L118.65 -40.5506L119.711 -40.4944L121.082 -39.4978L121.452 -38.7595L121.599 -35.672L122.338 -35.8894L123.014 -36.1616L123.644 -36.6415L123.83 -36.9909L126.124 -35.1241L127.222 -33.9366L129.226 -33.1631L132.942 -31.2723L133.756 -30.6645L136.568 -28.1029L138.348 -26.674L140.165 -25.551L142.719 -24.9023L144.621 -23.8776L146.963 -23.2402L151.31 -20.1353L156.612 -16.9797L156.454 -12.8818L157.356 -10.4215L157.141 -8.99562L158.027 -7.81944L158.124 -6.89037L155.797 -4.80656L154.176 -3.81453L152.666 -2.56008L151.659 -3.33209L151.121 -3.87387L151.008 -9.21809L149.456 -12.7395L148.178 -14.7578L146.823 -16.1641L144.721 -17.8668L143.754 -17.2508L142.629 -15.6679L140.706 -15.1025L140.106 -14.0051L140.872 -12.1679L139.927 -11.4481L138.808 -11.0455L136.819 -9.09775L134.904 -6.32484L133.351 -6.71517L132.089 -7.44934L128.766 -8.49808L126.987 -9.92699L124.666 -9.02345L122.112 -9.67215L121.44 -9.14315L122.878 -7.83498L125.818 -6.85786L126.951 -6.23318L126.675 -4.60524L125.502 -3.48686L124.674 -1.99092L125.281 2.25029L126.305 4.30641L126.602 5.91338L125.58 7.24508L125.446 8.3159L125.672 9.35445L126.364 10.3664L127.677 11.8219L128.959 14.097L130.407 16.1756L130.868 17.3293L130.942 18.1545L130.843 18.6626L131.209 22.275L130.988 23.1872L130.187 23.6067L129.129 23.8073L127.946 24.1552L127.084 24.7768L126.419 25.8194L126.304 26.7373L126.485 27.5681L126.704 28.093L127.441 29.3127L127.744 29.7394L127.959 30.0074L128.433 30.4945L129.144 31.3535L128.308 32.3358L127.675 32.5588L127.398 32.4928L126.546 32.191L125.398 31.9761L125.06 32.1122L124.787 32.3031L124.665 32.7072L124.668 32.964L124.736 33.2756L124.91 33.5928L124.871 33.8988L124.878 34.4124L124.904 34.7731L124.949 34.9808L125.059 35.2432L125.468 35.6756L125.619 35.8889L125.748 35.9984L125.835 36.157L125.944 36.4194L126.031 36.578L126.099 36.8896L126.106 37.4032L126.331 38.4418L126.291 40.1848L126.339 40.6494L126.69 41.5406L126.845 42.0108L127.252 43.8801L126.715 45.0323L125.49 45.4293L125.066 45.4068L124.767 45.237L124.68 45.0784L124.634 44.8707L124.586 44.4061L124.541 44.1984L124.325 43.9303L123.92 43.7548L123.666 43.7927L123.54 43.9401L123.521 44.093L123.483 44.399L123.361 44.8031L122.567 45.7363L122.423 46.0366L122.323 46.5446L122.243 46.8997L121.806 47.5438L121.491 47.7838L121.153 47.9198L120.157 47.9183L119.819 48.0544L119.481 48.1905L119.022 48.7307L118.135 50.6856L117.927 50.9312L117.737 51.0238L117.441 51.1108L117.229 51.0995L117.017 51.0883L116.717 50.9184L116.589 50.8089L116.009 50.3163L114.874 49.4348L114.324 49.5596L113.507 50.3889L111.739 51.4244L109.552 51.2572L108.877 51.5293L108.71 51.7258L104.206 54.4128L103.811 55.0078L103.567 55.8161L102.61 57.2026L102.295 57.4425L102.021 57.6334L101.745 57.5674L100.809 57.3637L100.532 57.2978L98.9468 57.727L98.5223 57.7045L98.2457 57.6385L97.8211 57.616L97.5445 57.55L95.467 57.6452L95.1294 57.7813L92.9717 58.2315L90.3195 59.7848L89.9402 59.97L89.2164 59.7776L88.0647 59.3059L87.4053 59.1683L87.0678 59.3044L86.8363 59.4461L86.711 59.5935L86.5891 59.9976L86.7347 61.3912L86.7381 61.6481L86.6579 62.0031L86.4683 62.0957L85.1721 61.9244L84.8763 62.0113L84.8153 62.2134L84.6516 62.6667L84.2982 63.2126L84.2056 64.2343L84.1062 64.7423L83.9809 64.8896L84.7442 66.47L84.8514 68.1695L85.9038 69.1492L86.8341 70.5331L86.5033 71.1829L86.5395 72.314L86.8782 73.8719L85.949 74.1819L85.6633 75.0394L85.3946 77.1809L86.0359 79.1655L84.8143 79.8193L84.7567 80.2782L84.7217 80.841L86.1206 80.7612L87.2983 81.5935L86.2087 82.6137L85.5821 83.3504L85.2998 84.4647L85.2524 85.6941L83.5249 84.9865L81.3413 85.0761L80.7722 85.3539L79.8566 86.6912L79.1509 89.4769L79.1453 90.6572L79.7392 93.8711L80.3026 94.7736L80.9654 95.168L81.6022 95.2018L82.2198 95.3885L82.8825 95.783L84.2533 96.7795L84.9578 97.1249L85.9717 98.4105L86.0531 99.7494L85.388 100.792L83.8863 101.123L82.3011 101.552L81.2985 102.731L81.1608 103.545L81.9782 104.41L83.0305 105.389L82.317 105.967L81.0919 106.365L80.0893 107.543L79.1217 108.159L78.582 109.055L77.2181 108.572L76.623 108.489L75.6712 108.695L74.8831 108.448L74.3107 108.469L74.34 109.086L74.5659 110.125L74.357 110.37L73.1218 109.997L72.398 109.805L71.6743 109.612L71.121 109.48L70.613 109.556L70.3013 110.053L70.3533 110.774L70.5531 111.452L70.6084 112.43L70.8952 113.267L70.8828 113.933L70.1625 113.998L69.3552 113.904L67.6413 114.223L59.408 113.992L54.2052 115.154L52.0216 115.243L49.9791 114.776L49.0882 114.78L48.3103 115.303L47.3585 115.509L46.2034 114.781L44.9162 113.686L43.7386 112.854L41.783 112.545L40.2882 113.389L38.2253 116.206ZM103.215 -51.2241L104.86 -48.7244L104.867 -48.2108L104.703 -47.7575L106.276 -47.5201L107.749 -46.7747L104.926 -42.1508L104.064 -41.5292L103.048 -41.3777L103.561 -39.5027L103.414 -37.7653L102.409 -35.1495L100.51 -32.7863L99.015 -31.9417L97.2073 -32.2942L97.432 -32.9495L97.2864 -34.3431L97.9672 -35.7956L98.0462 -37.8446L97.8881 -38.5716L95.7801 -40.7878L91.3699 -42.2535L89.394 -44.1035L91.0266 -45.7621L91.9559 -46.0722L92.3262 -45.3339L92.8603 -45.049L94.1542 -43.4405L95.3352 -42.3513L94.5494 -44.0355L94.6036 -44.7512L95.8568 -46.2246L95.8828 -45.864L95.9506 -45.5524L96.1888 -45.1805L96.5975 -44.7482L98.0924 -45.5928L96.812 -46.174L95.2573 -48.2583L93.0917 -50.0156L91.3224 -50.6741L91.0627 -49.4559L89.5249 -50.2561L88.0966 -50.7938L86.8422 -51.0142L85.7617 -50.9175L84.9838 -50.3941L84.592 -49.5423L84.837 -48.6567L86.1591 -48.1247L86.7384 -47.632L86.639 -47.124L86.9032 -46.3914L87.2962 -45.5493L87.7918 -44.9584L87.8178 -44.5977L87.3109 -42.828L86.3647 -43.8021L85.8656 -44.6499L85.6658 -45.3277L85.2345 -45.8639L84.102 -46.4885L83.7644 -46.3524L83.8355 -45.7841L83.4765 -44.0579L84.0241 -42.7456L84.2082 -41.658L83.2371 -41.2988L81.9432 -42.9073L80.0983 -46.0848L78.1416 -48.0878L76.6681 -48.8332L73.4197 -49.0567L72.1428 -49.3811L71.5342 -50.4913L71.2214 -51.6884L71.4845 -52.6497L72.3493 -53.0145L73.4141 -52.7014L76.6794 -51.1937L78.0433 -50.7108L80.166 -50.5982L83.9732 -51.423L85.8091 -52.1469L87.6292 -52.4611L102.093 -51.0783L103.173 -51.175L103.215 -51.2241ZM13.4539 47.3943L12.0471 45.2666L11.7173 42.7853L12.327 40.7644L13.8897 40.2313L17.1957 44.8209L17.5694 45.816L17.1934 46.258L16.6368 45.8692L15.4298 44.4193L14.4034 43.8003L14.1528 44.095L14.6292 44.8389L15.8487 45.6221L16.0102 46.6059L15.5088 47.1953L14.4927 47.3467L13.4539 47.3943ZM10.6672 35.5435L10.4742 35.3793L10.0621 34.6902L10.5645 30.9697L10.3386 29.9312L10.9314 31.4512L11.5061 34.818L12.4173 36.3549L12.2502 36.5514L10.6672 35.5435ZM17.747 -58.0651L17.9604 -56.3599L19.0804 -55.0686L20.6476 -53.651L22.0285 -51.8839L22.2701 -51.2551L22.3898 -50.2222L22.8019 -49.5331L23.5133 -48.6741L24.2438 -47.9681L25.9397 -46.441L25.7308 -46.1954L24.6367 -47.126L22.8539 -48.8117L18.473 -54.4849L16.6224 -56.4822L16.3164 -57.1657L16.5603 -57.974L16.9781 -58.4652L17.3766 -58.8033L18.1004 -58.611L19.0014 -57.8446L18.8309 -57.905L18.6186 -57.9162L18.429 -57.8236L19.5874 -56.8383L19.4203 -56.6418L17.747 -58.0651ZM51.293 -63.7294L54.3811 -62.7957L55.9765 -62.4545L57.1789 -62.9554L57.2117 -62.081L57.5436 -61.0369L58.3453 -59.7624L59.5071 -58.5203L60.7943 -57.4255L61.2256 -56.8893L60.827 -56.5511L59.7725 -56.0937L60.1485 -56.5358L60.206 -56.9947L59.7522 -57.6347L58.7902 -58.199L58.5813 -57.9534L58.8037 -57.1717L58.6016 -56.4125L58.1003 -55.8231L57.4669 -55.6L56.952 -56.0379L57.3077 -58.0209L57.188 -59.0539L56.5376 -60.1149L55.1433 -58.0844L54.7966 -57.0248L54.8136 -55.7407L54.6182 -59.2928L54.8813 -60.2541L54.3021 -60.7468L53.3378 -59.8739L52.9844 -59.3281L53.0138 -58.7105L53.3683 -57.5625L52.9246 -57.4321L52.1591 -57.5753L51.5031 -57.4561L49.0745 -53.4271L49.0462 -52.3507L49.6052 -48.574L50.1076 -47.4695L50.9545 -45.9874L50.5017 -44.9335L50.3481 -43.7097L52.411 -41.7012L52.2495 -42.685L51.8634 -43.0134L51.6511 -43.0247L51.5676 -42.9265L51.4614 -42.9321L52.5374 -44.9795L52.875 -45.1156L54.9503 -43.7737L55.7452 -43.013L55.5656 -42.1499L54.4953 -41.2827L53.0196 -40.591L50.8393 -40.2446L50.6395 -40.9225L49.8412 -41.9401L48.9526 -43.3731L48.9436 -42.4496L49.0565 -41.9304L49.2755 -41.4054L49.6583 -41.3338L49.9993 -41.2131L49.3083 -40.5311L49.0802 -40.1325L49.1514 -39.5642L49.0938 -39.1053L48.4378 -38.986L47.7366 -39.0745L47.2703 -39.0479L46.6821 -38.6172L45.7946 -38.3562L44.7525 -38.5655L43.8898 -39.6378L43.2372 -39.2618L43.0261 -37.5791L42.7563 -37.1314L41.9038 -37.4333L41.5978 -38.1168L41.7581 -38.8269L42.5395 -39.0934L42.0246 -39.5314L37.8922 -39.2372L36.5723 -41.2063L35.7413 -43.0982L35.9783 -44.4202L37.8402 -44.7835L37.5342 -45.467L38.3833 -45.422L38.6723 -46.0226L38.626 -47.9242L38.0603 -47.3896L37.2113 -47.4346L36.2075 -47.9498L35.538 -48.8579L35.0875 -49.2411L34.6053 -48.8047L33.9042 -48.8932L33.3509 -49.0252L32.7593 -48.8512L32.0017 -46.7869L30.8297 -48.7995L30.6298 -49.4774L31.1436 -50.7334L31.3547 -52.4161L31.7883 -53.317L31.209 -53.8097L31.2892 -54.1647L31.0702 -54.6897L29.7198 -54.1453L28.9576 -54.0317L28.0408 -54.3883L27.9313 -54.6507L27.8861 -54.8585L27.7123 -55.1757L27.0913 -55.6192L26.7288 -54.1499L26.2727 -53.3528L25.6777 -53.4356L25.3367 -53.5564L25.147 -53.4638L24.7868 -53.4316L24.1658 -53.8751L23.4161 -54.4282L22.8403 -54.664L22.4383 -54.5827L22.1877 -54.288L22.383 -55.5608L24.1658 -58.7001L24.9019 -59.1743L25.4778 -58.9385L26.1112 -59.1615L26.8315 -59.226L28.0927 -58.4919L28.7973 -58.1465L28.7261 -58.7149L27.9505 -59.6287L26.4126 -60.4288L25.865 -61.7411L25.5489 -63.1951L25.4484 -64.3809L25.6697 -65.2931L27.0088 -63.477L27.4661 -62.5801L27.6659 -61.9022L27.833 -62.0987L28.0645 -62.2404L28.4247 -62.2727L28.8718 -62.1463L29.0908 -61.6214L30.063 -60.2866L30.4807 -60.7777L30.6636 -61.384L30.3994 -62.1166L29.7073 -63.1286L29.3505 -62.8395L28.6719 -62.8242L28.2925 -62.639L27.7133 -63.1316L27.5519 -64.1154L28.9801 -63.5777L30.553 -63.3404L32.023 -62.8518L33.0369 -61.5661L34.9733 -61.1042L36.1758 -61.6051L37.6989 -63.5261L36.9108 -63.7733L36.1092 -65.0477L35.9127 -65.4687L35.8641 -65.9332L35.2849 -66.4259L33.8758 -67.1166L33.1295 -67.4128L32.4701 -67.5504L31.8909 -68.0431L31.8649 -68.4038L31.8198 -68.6115L31.752 -68.923L31.9383 -69.2725L31.4234 -69.7104L31.1118 -69.2136L31.1829 -68.6452L31.4246 -68.0165L31.4731 -67.5519L31.2676 -67.0495L30.0945 -65.9312L29.67 -65.9537L28.988 -66.1951L28.1999 -66.4422L27.6501 -66.3174L26.9975 -65.9414L26.4442 -66.0734L25.804 -66.3639L25.0577 -66.6602L23.8451 -66.9298L23.4397 -67.1052L23.5786 -66.2253L23.7785 -65.5474L24.3069 -64.0822L24.2403 -62.6998L24.64 -61.344L24.7405 -60.1581L23.7921 -59.6951L22.7014 -60.3689L21.4718 -61.9226L20.4962 -63.5142L20.2704 -64.5528L20.074 -64.9738L19.427 -65.7781L18.6965 -66.4841L18.2911 -66.6596L17.4692 -64.65L17.5245 -63.6718L17.2513 -63.481L16.3277 -64.3512L15.9156 -65.0403L15.6931 -65.8221L15.6829 -66.5925L17.9298 -73.1462L18.8071 -74.1777L20.3087 -74.5087L20.7592 -74.1255L20.9433 -73.0378L20.8315 -71.8632L21.019 -70.5186L21.9685 -69.2877L23.4679 -68.1816L24.877 -67.491L26.1958 -67.2158L27.3407 -67.2577L29.3019 -68.129L32.0478 -73.835L33.8995 -74.9687L36.3631 -74.7354L38.6315 -73.2293L39.8328 -70.5991L39.9119 -67.8231L40.2088 -66.2162L41.1392 -64.8323L42.616 -63.8301L44.2826 -62.9205L45.7752 -62.328L46.8174 -62.1188L47.9589 -62.4176L49.9585 -63.5948L51.293 -63.7294Z" fill="#6F9C76" fill-opacity="0.2" stroke="white" stroke-opacity="0.2" stroke-width="0.5" stroke-linecap="round" stroke-linejoin="round"/>
</svg>
