<svg width="71" height="54" viewBox="0 0 71 54" fill="none" xmlns="http://www.w3.org/2000/svg">
  <path
    d="M24.8183 53.9993H45.3317C62.6092 53.9993 70.15 46.2273 70.15 29.6433V9.41882C70.15 3.23591 66.8852 0 60.6445 0H9.5055C3.26481 0 0 3.20702 0 9.41882V29.6433C0 46.2273 7.51194 53.9993 24.8183 53.9993ZM24.9339 48.192C11.5568 48.192 5.74953 42.3847 5.74953 29.8455V9.93888C5.74953 7.19413 7.25192 5.74953 9.8811 5.74953H60.2689C62.8692 5.74953 64.3716 7.19413 64.3716 9.93888V29.8455C64.3716 42.3847 58.5932 48.192 45.2161 48.192H24.9339ZM29.8455 39.9H42.6736C44.0893 39.9 45.0717 39.0332 45.0717 37.5886C45.0717 36.1151 44.0893 35.2772 42.6736 35.2772H32.7347V16.6418C32.7347 14.6194 31.6946 13.4059 29.8455 13.4059C27.9964 13.4059 26.9852 14.6772 26.9852 16.6418V36.693C26.9852 38.6287 27.9964 39.9 29.8455 39.9Z"
    fill="white" />
</svg>