<svg width="47" height="43" viewBox="0 0 47 43" fill="none" xmlns="http://www.w3.org/2000/svg">
  <path
    d="M6.87125 24.7855C6.87125 27.4071 8.48455 29.7598 11.3078 31.4907V33.104C10.3835 33.4065 9.81216 34.2132 9.81216 35.3223V39.8429C9.81216 41.2714 10.7533 42.2125 12.1817 42.2125H12.8875C14.316 42.2125 15.257 41.2714 15.257 39.8429V35.3223C15.257 34.23 14.7025 33.4065 13.795 33.104V32.7175C16.4334 33.7762 19.744 34.398 23.4916 34.398C33.3731 34.398 40.1287 30.1295 40.1287 24.7855V17.2567L44.9014 15.0721C46.0946 14.5175 46.75 13.4588 46.75 12.316C46.75 11.1901 46.0946 10.1145 44.9014 9.57676L28.2811 1.9808C26.4493 1.15735 24.9705 0.770829 23.4916 0.787634C22.0295 0.770829 20.5507 1.15735 18.7021 1.9808L2.09857 9.57676C0.888598 10.1145 0.25 11.1901 0.25 12.316C0.25 13.4588 0.888598 14.5175 2.09857 15.0721L6.87125 17.2567V24.7855ZM23.4916 20.5506C22.4161 20.5506 21.3909 20.2817 19.9961 19.6263L15.5259 17.6096L21.9287 14.2486C22.4329 14.383 22.9874 14.4671 23.5588 14.4671C25.4746 14.4671 27.3232 13.5764 27.3232 12.316C27.3232 11.0892 25.4746 10.2154 23.5588 10.2154C21.6262 10.2154 19.7608 11.0892 19.7608 12.316C19.7608 12.4841 19.7945 12.6353 19.8449 12.7697L12.8539 16.3829L5.02268 12.8202C4.75379 12.7025 4.61935 12.5345 4.61935 12.316C4.61935 12.1143 4.75379 11.9295 5.02268 11.8118L19.9961 5.00574C21.3909 4.36714 22.4161 4.08145 23.4916 4.08145C24.5671 4.08145 25.5922 4.36714 27.0039 5.00574L41.9773 11.8118C42.2294 11.9295 42.3638 12.1143 42.3638 12.316C42.3638 12.5345 42.2294 12.7025 41.9773 12.8202L27.0039 19.6263C25.5922 20.2817 24.5671 20.5506 23.4916 20.5506ZM10.1147 24.7855V18.7356L11.3078 19.2734V27.5247C10.518 26.6676 10.1147 25.7434 10.1147 24.7855ZM23.4916 23.8612C24.9705 23.878 26.4493 23.4915 28.2811 22.6512L36.8853 18.7356V24.7855C36.8853 28.1969 31.5749 31.3395 23.4916 31.3395C19.4752 31.3395 16.1309 30.5496 13.795 29.3397V20.4161L18.7021 22.6512C20.5507 23.4915 22.0295 23.878 23.4916 23.8612Z"
    fill="#0CB100" />
</svg>