<svg width="37" height="41" viewBox="0 0 37 41" fill="none" xmlns="http://www.w3.org/2000/svg">
  <path
    d="M18.25 33.1981C19.0396 33.1981 20.1342 30.2013 20.1342 25.3562V14.0509C23.1669 13.2254 25.3741 10.444 25.3741 7.16003C25.3741 3.21214 22.2158 0 18.25 0C14.3021 0 11.1438 3.21214 11.1438 7.16003C11.1438 10.426 13.3331 13.2075 16.3658 14.0329V25.3562C16.3658 30.1834 17.4784 33.1981 18.25 33.1981ZM16.2402 7.55482C14.9481 7.55482 13.7997 6.42429 13.7997 5.09636C13.7997 3.78638 14.9481 2.6738 16.2402 2.6738C17.586 2.6738 18.6807 3.78638 18.6807 5.09636C18.6807 6.42429 17.586 7.55482 16.2402 7.55482ZM18.25 40.2684C29.663 40.2684 36.5 36.4282 36.5 32.0138C36.5 27.1866 29.1067 24.0642 23.2028 23.8129V27.0251C27.2225 27.2045 32.4086 29.0529 32.4086 31.6549C32.4086 34.7414 26.4508 36.8768 18.25 36.8768C10.0492 36.8768 4.10939 34.7593 4.10939 31.6549C4.10939 29.0529 9.29548 27.2045 13.2972 27.0251V23.8129C7.39331 24.0642 0 27.1866 0 32.0138C0 36.4282 6.83702 40.2684 18.25 40.2684Z"
    fill="#0CB100" />
</svg>