<svg version="1.1" xmlns="http://www.w3.org/2000/svg" xmlns:xlink="http://www.w3.org/1999/xlink"
  viewBox="0 0 25.4391 25.4446">
  <g>
    <rect height="25.4446" opacity="0" width="25.4391" x="0" y="0" />
    <path
      d="M12.7143 25.4285C19.7384 25.4285 25.4391 19.7384 25.4391 12.7143C25.4391 5.69016 19.7384 0 12.7143 0C5.70071 0 8.88178e-16 5.69016 8.88178e-16 12.7143C8.88178e-16 19.7384 5.70071 25.4285 12.7143 25.4285ZM12.7143 23.6143C6.68721 23.6143 1.81921 18.7413 1.81921 12.7143C1.81921 6.68721 6.68721 1.81419 12.7143 1.81419C18.7413 1.81419 23.6143 6.68721 23.6143 12.7143C23.6143 18.7413 18.7413 23.6143 12.7143 23.6143Z"
      fill="#0CB100" fill-opacity="0.85" />
    <path
      d="M8.09257 14.4026C7.04423 15.3122 6.4496 16.47 6.4496 17.5223C6.4496 17.8645 6.53484 18.1829 6.69677 18.4555L1.95868 18.4555C1.08856 18.4555 0.770196 18.0774 0.770196 17.4111C0.770196 15.7245 2.62509 13.6746 5.41309 13.6746C6.45218 13.6746 7.36127 13.9585 8.09257 14.4026ZM24.6687 17.4111C24.6687 18.0774 24.3504 18.4555 23.4803 18.4555L18.7573 18.4555C18.9191 18.1829 19.0041 17.8645 19.0041 17.5223C19.0041 16.4679 18.4075 15.3076 17.3563 14.397C18.0853 13.956 18.9901 13.6746 20.0231 13.6746C22.8153 13.6746 24.6687 15.7245 24.6687 17.4111ZM18.0637 17.5223C18.0637 18.1017 17.6255 18.453 16.903 18.453L8.55075 18.453C7.82968 18.453 7.3915 18.1017 7.3915 17.5223C7.3915 15.908 9.46486 13.691 12.7296 13.691C15.9902 13.691 18.0637 15.908 18.0637 17.5223ZM7.64213 10.2795C7.64213 11.6474 6.63601 12.7222 5.41592 12.7222C4.19994 12.7222 3.19367 11.6474 3.19367 10.2836C3.19367 8.95547 4.20922 7.89087 5.41592 7.89087C6.62673 7.89087 7.64213 8.93903 7.64213 10.2795ZM22.2522 10.2795C22.2522 11.6474 21.246 12.7222 20.026 12.7222C18.81 12.7222 17.8038 11.6474 17.8038 10.2836C17.8038 8.95547 18.8193 7.89087 20.026 7.89087C21.2326 7.89087 22.2522 8.93903 22.2522 10.2795ZM15.284 9.77564C15.284 11.3498 14.1304 12.5814 12.7325 12.5814C11.3304 12.5814 10.1769 11.3498 10.1769 9.78386C10.1769 8.25595 11.3438 7.03211 12.7325 7.03211C14.1211 7.03211 15.284 8.24363 15.284 9.77564Z"
      fill="#0CB100" fill-opacity="0.85" />
  </g>
</svg> 