<svg width="46" height="37" viewBox="0 0 46 37" fill="none" xmlns="http://www.w3.org/2000/svg">
<path id="questionmark.folder" d="M6.95661 37H39.5144C43.302 37 45.5 34.7792 45.5 30.5359V10.1324C45.5 5.88907 43.2824 3.66827 39.0434 3.66827H20.8511C19.4381 3.66827 18.5942 3.35102 17.4952 2.43891L16.3962 1.5268C15.0028 0.376742 13.9823 0 11.9217 0H6.36786C2.67837 0 0.5 2.18114 0.5 6.36495V30.5359C0.5 34.799 2.71762 37 6.95661 37ZM7.21173 33.0541C5.40624 33.0541 4.40536 32.1024 4.40536 30.179V6.70204C4.40536 4.89764 5.40624 3.94587 7.15286 3.94587H10.8816C12.275 3.94587 13.0992 4.28296 14.2178 5.19507L15.3168 6.12701C16.6906 7.23741 17.7503 7.63398 19.8109 7.63398H38.7883C40.5938 7.63398 41.5946 8.58574 41.5946 10.4893V30.1988C41.5946 32.1024 40.5938 33.0541 38.7883 33.0541H7.21173ZM22.6369 23.8735C23.6378 23.8735 24.2854 23.2985 24.3247 22.545C24.3247 22.4657 24.3443 22.3864 24.3443 22.3269C24.4032 21.3751 25.0508 20.7406 26.2283 19.9673C28.0142 18.7974 29.1524 17.7267 29.1524 15.605C29.1524 12.5713 26.4442 10.8065 23.2061 10.8065C20.1053 10.8065 17.9858 12.2342 17.4167 13.9593C17.299 14.2765 17.2401 14.5938 17.2401 14.9309C17.2401 15.8033 17.927 16.3783 18.7708 16.3783C19.8306 16.3783 20.0661 15.8232 20.6156 15.1886C21.2043 14.2765 21.9697 13.7412 23.0491 13.7412C24.4817 13.7412 25.4041 14.574 25.4041 15.8033C25.4041 16.9335 24.6583 17.5284 23.1079 18.5991C21.8323 19.5113 20.8903 20.4432 20.8903 22.089V22.2872C20.8903 23.3382 21.5183 23.8735 22.6369 23.8735ZM22.5977 29.5048C23.7752 29.5048 24.7368 28.6522 24.7368 27.4823C24.7368 26.3323 23.7948 25.4796 22.5977 25.4796C21.4202 25.4796 20.4586 26.3323 20.4586 27.4823C20.4586 28.6522 21.4398 29.5048 22.5977 29.5048Z" fill="#0CB100"/>
</svg>
