<svg width="34" height="40" viewBox="0 0 34 40" fill="none" xmlns="http://www.w3.org/2000/svg">
  <path
    d="M12.9548 28H2.84329V38M21.0441 12H31.1556V2M2 14.0068C3.13388 11.2313 5.03231 8.82608 7.47953 7.06445C9.92674 5.30283 12.8271 4.25504 15.8462 4.04102C18.8653 3.82699 21.8828 4.45481 24.559 5.85322C27.2353 7.25164 29.4593 9.36508 30.9819 11.9522M32 25.9941C30.8661 28.7696 28.9677 31.1749 26.5205 32.9365C24.0733 34.6981 21.1758 35.7446 18.1567 35.9586C15.1376 36.1726 12.1177 35.5449 9.44146 34.1465C6.7652 32.7481 4.53964 30.635 3.01708 28.0479"
    stroke="white" stroke-width="4" stroke-linecap="round" stroke-linejoin="round" />
</svg>
  