<svg width="90" height="90" viewBox="0 0 90 90" fill="none" xmlns="http://www.w3.org/2000/svg">
<path id="Settings" d="M40.8 90H49.2C52.6345 90 55.3241 87.8463 56.1517 84.5329L57.8069 77.2849L58.8828 76.8707L65.2138 80.8053C68.1103 82.6277 71.5448 82.1307 73.9862 79.6871L79.7793 73.8886C82.2621 71.4036 82.6759 68.0074 80.8552 65.1496L76.9241 58.8127L77.3379 57.8187L84.5793 56.1206C87.8483 55.2922 90 52.6001 90 49.1624V41.0032C90 37.5656 87.8897 34.8734 84.5793 34.0451L77.3793 32.3056L76.9655 31.2287L80.8966 24.9333C82.7172 22.0755 82.3035 18.6792 79.8207 16.1528L74.0276 10.3543C71.6276 7.91072 68.1931 7.45513 65.2966 9.23608L58.9655 13.1293L57.8069 12.7151L56.1517 5.42568C55.3241 2.11229 52.6345 0 49.2 0H40.8C37.3241 0 34.6345 2.11229 33.8483 5.42568L32.1931 12.7151L31.0345 13.1293L24.7034 9.23608C21.7655 7.45513 18.3724 7.91072 15.9724 10.3543L10.1379 16.1528C7.69655 18.6792 7.24138 22.0755 9.06207 24.9333L12.9931 31.2287L12.5793 32.3056L5.42069 34.0451C2.11034 34.8734 0 37.5656 0 41.0032V49.1624C0 52.6001 2.15172 55.2922 5.42069 56.1206L12.6621 57.8187L13.0345 58.8127L9.10345 65.1496C7.28276 68.0074 7.73793 71.4036 10.1793 73.8886L16.0138 79.6871C18.4138 82.1307 21.8483 82.6277 24.7448 80.8053L31.0759 76.8707L32.1931 77.2849L33.8483 84.5329C34.6345 87.8463 37.3241 90 40.8 90ZM41.8759 82.3792C41.1724 82.3792 40.8 82.0893 40.7172 81.468L38.2345 71.2793C35.6276 70.6581 33.1034 69.5812 31.0759 68.2973L22.1379 73.8058C21.6 74.1371 21.1034 74.0957 20.6069 73.5987L16.2621 69.2499C15.7655 68.7943 15.7655 68.2973 16.0966 67.7589L21.6 58.8127C20.4414 56.8247 19.3655 54.3396 18.7448 51.7303L8.52414 49.2867C7.90345 49.2039 7.57241 48.8311 7.57241 48.127V41.9972C7.57241 41.2517 7.86207 40.9618 8.52414 40.7961L18.7034 38.3939C19.3241 35.619 20.5241 33.0511 21.5586 31.1873L16.0552 22.324C15.7241 21.7441 15.7241 21.2471 16.1793 20.7501L20.5655 16.4427C21.0621 15.9871 21.5172 15.9043 22.1379 16.277L30.9931 21.7027C32.8552 20.543 35.6276 19.3833 38.2759 18.7207L40.7172 8.53198C40.8 7.91072 41.1724 7.57938 41.8759 7.57938H48.1241C48.8276 7.57938 49.1586 7.8693 49.2828 8.53198L51.7655 18.7621C54.4552 19.4248 56.8966 20.543 58.9655 21.7027L67.8207 16.277C68.4414 15.9457 68.8966 15.9871 69.3931 16.4841L73.7793 20.7915C74.2759 21.2471 74.2759 21.7441 73.9035 22.324L68.4414 31.1873C69.4345 33.0511 70.6759 35.619 71.2966 38.3939L81.4759 40.7961C82.1379 40.9618 82.3862 41.2517 82.3862 41.9972V48.127C82.3862 48.8311 82.0965 49.2039 81.4759 49.2867L71.2552 51.7303C70.6345 54.3396 69.5172 56.8661 68.3586 58.8127L73.8621 67.7174C74.1931 68.2973 74.1931 68.7529 73.6965 69.2085L69.3517 73.5987C68.8552 74.0957 68.3586 74.1371 67.8207 73.8058L58.9241 68.2973C56.8552 69.5812 54.4966 70.6167 51.7655 71.2793L49.2828 81.468C49.1586 82.0893 48.8276 82.3792 48.1241 82.3792H41.8759ZM45.0207 60.7179C53.6276 60.7179 60.7034 53.6355 60.7034 44.9793C60.7034 36.4059 53.6276 29.3235 45.0207 29.3235C36.3724 29.3235 29.2552 36.4059 29.2552 44.9793C29.2552 53.6355 36.3724 60.7179 45.0207 60.7179ZM45.0207 53.5527C40.3034 53.5527 36.4552 49.7009 36.4552 44.9793C36.4552 40.3405 40.3448 36.4887 45.0207 36.4887C49.6138 36.4887 53.4621 40.3405 53.4621 44.9793C53.4621 49.6595 49.6138 53.5527 45.0207 53.5527Z" fill="#0CB100"/>
</svg>
