<svg version="1.1" xmlns="http://www.w3.org/2000/svg" xmlns:xlink="http://www.w3.org/1999/xlink"
  viewBox="0 0 25.4391 25.4446">
  <g>
    <rect height="25.4446" opacity="0" width="25.4391" x="0" y="0" />
    <path
      d="M12.7143 25.4285C19.7384 25.4285 25.4391 19.7384 25.4391 12.7143C25.4391 5.69016 19.7384 0 12.7143 0C5.70071 0 8.88178e-16 5.69016 8.88178e-16 12.7143C8.88178e-16 19.7384 5.70071 25.4285 12.7143 25.4285ZM12.7143 23.6143C6.68721 23.6143 1.81921 18.7413 1.81921 12.7143C1.81921 6.68721 6.68721 1.81419 12.7143 1.81419C18.7413 1.81419 23.6143 6.68721 23.6143 12.7143C23.6143 18.7413 18.7413 23.6143 12.7143 23.6143Z"
      fill="#0CB100" fill-opacity="0.85" />
    <path
      d="M7.35063 14.0029C7.35063 16.2682 8.62492 17.191 12.2605 19.1542C12.4222 19.24 12.5981 19.2932 12.7192 19.2932C12.8402 19.2932 13.0161 19.24 13.1778 19.1542C16.8176 17.2036 18.0877 16.2682 18.0877 14.0029L18.0877 9.29734C18.0877 8.46713 17.7995 8.15213 17.0845 7.84983C16.3872 7.55988 14.1577 6.79175 13.4842 6.56392C13.2437 6.48748 12.9614 6.43719 12.7192 6.43719C12.4769 6.43719 12.1905 6.49821 11.9542 6.56392C11.282 6.76203 9.0511 7.564 8.35238 7.84983C7.63878 8.14659 7.35063 8.46713 7.35063 9.29734ZM12.796 17.8573L12.796 7.73198C12.8855 7.73609 12.9746 7.7638 13.1275 7.81197C13.8475 8.08882 15.6507 8.72657 16.5443 9.05303C16.7397 9.12835 16.7917 9.23707 16.7917 9.48867L16.7917 13.785C16.7917 15.5586 15.8433 16.0492 13.0517 17.7388C12.9418 17.8093 12.8652 17.8449 12.796 17.8573Z"
      fill="#0CB100" fill-opacity="0.85" />
  </g>
</svg> 